<svg xmlns="http://www.w3.org/2000/svg" viewBox="0 0 760 520" class="sov-view standalone" role="img" aria-label="Landscape of workshop3.sov, chairs by tables slice" data-view="landscape"><style>.sov-view{--v-canvas:#FEFEFC;--v-panel:#FFFFFF;--v-ink:#42423E;--v-muted:#6C6C65;--v-line:#D8D8D1;--v-hi:#2a78d6;--v-s2:#eb6834;--v-s3:#1baf7a;--v-hatch:#C9C9C1;--v-soft:rgba(42,120,214,.16);font-family:"IBM Plex Mono",ui-monospace,Menlo,Consolas,monospace}@media (prefers-color-scheme: dark){:root:not([data-theme="light"]) .sov-view,.sov-view.standalone{--v-canvas:#17191B;--v-panel:#1C1F21;--v-ink:#E7E8E3;--v-muted:#A8AAA4;--v-line:#3B3F42;--v-hi:#3987e5;--v-s2:#d95926;--v-s3:#199e70;--v-hatch:#44484C;--v-soft:rgba(57,135,229,.22)}}:root[data-theme="dark"] .sov-view{--v-canvas:#17191B;--v-panel:#1C1F21;--v-ink:#E7E8E3;--v-muted:#A8AAA4;--v-line:#3B3F42;--v-hi:#3987e5;--v-s2:#d95926;--v-s3:#199e70;--v-hatch:#44484C;--v-soft:rgba(57,135,229,.22)}.sov-view .lbl{font-size:11px;fill:var(--v-muted)}.sov-view .ink{font-size:11px;font-weight:600;fill:var(--v-ink)}.sov-view .lane{font-size:11px;font-weight:600;fill:var(--v-ink)}.sov-view .bad{fill:var(--v-s2);font-weight:600}.sov-view [data-link].hl{outline:none;filter:drop-shadow(0 0 3px var(--v-hi))}</style><rect x="0" y="0" width="760" height="520" style="fill:var(--v-canvas);"/><defs><pattern id="hatch2" width="7" height="7" patternUnits="userSpaceOnUse" patternTransform="rotate(45)"><path d="M0 0V7" stroke-width="2" style="stroke:var(--v-hatch);"/></pattern></defs><rect x="56" y="24" width="584" height="446" fill="url(#hatch2)"/><rect x="48.7" y="464.43" width="15" height="11.55" fill-opacity="0.06" style="fill:var(--v-hi);"/><rect x="48.7" y="453.28" width="15" height="11.55" fill-opacity="0.07" style="fill:var(--v-hi);"/><rect x="48.7" y="442.13" width="15" height="11.55" fill-opacity="0.07" style="fill:var(--v-hi);"/><rect x="48.7" y="430.98" width="15" height="11.55" fill-opacity="0.08" style="fill:var(--v-hi);"/><rect x="48.7" y="419.83" width="15" height="11.55" fill-opacity="0.09" style="fill:var(--v-hi);"/><rect x="48.7" y="408.68" width="15" height="11.55" fill-opacity="0.1" style="fill:var(--v-hi);"/><rect x="48.7" y="397.53" width="15" height="11.55" fill-opacity="0.11" style="fill:var(--v-hi);"/><rect x="48.7" y="386.38" width="15" height="11.55" fill-opacity="0.12" style="fill:var(--v-hi);"/><rect x="48.7" y="375.23" width="15" height="11.55" fill-opacity="0.14" style="fill:var(--v-hi);"/><rect x="48.7" y="364.08" width="15" height="11.55" fill-opacity="0.15" style="fill:var(--v-hi);"/><rect x="48.7" y="352.93" width="15" height="11.55" fill-opacity="0.17" style="fill:var(--v-hi);"/><rect x="48.7" y="341.78" width="15" height="11.55" fill-opacity="0.2" style="fill:var(--v-hi);"/><rect x="48.7" y="330.63" width="15" height="11.55" fill-opacity="0.22" style="fill:var(--v-hi);"/><rect x="48.7" y="319.47" width="15" height="11.55" fill-opacity="0.25" style="fill:var(--v-hi);"/><rect x="48.7" y="308.33" width="15" height="11.55" fill-opacity="0.28" style="fill:var(--v-hi);"/><rect x="48.7" y="297.18" width="15" height="11.55" fill-opacity="0.31" style="fill:var(--v-hi);"/><rect x="48.7" y="286.03" width="15" height="11.55" fill-opacity="0.34" style="fill:var(--v-hi);"/><rect x="48.7" y="274.88" width="15" height="11.55" fill-opacity="0.38" style="fill:var(--v-hi);"/><rect x="48.7" y="263.72" width="15" height="11.55" fill-opacity="0.42" style="fill:var(--v-hi);"/><rect x="48.7" y="252.58" width="15" height="11.55" fill-opacity="0.47" style="fill:var(--v-hi);"/><rect x="48.7" y="241.43" width="15" height="11.55" fill-opacity="0.51" style="fill:var(--v-hi);"/><rect x="48.7" y="230.28" width="15" height="11.55" fill-opacity="0.57" style="fill:var(--v-hi);"/><rect x="63.3" y="464.43" width="15" height="11.55" fill-opacity="0.07" style="fill:var(--v-hi);"/><rect x="63.3" y="453.28" width="15" height="11.55" fill-opacity="0.07" style="fill:var(--v-hi);"/><rect x="63.3" y="442.13" width="15" height="11.55" fill-opacity="0.08" style="fill:var(--v-hi);"/><rect x="63.3" y="430.98" width="15" height="11.55" fill-opacity="0.09" style="fill:var(--v-hi);"/><rect x="63.3" y="419.83" width="15" height="11.55" fill-opacity="0.1" style="fill:var(--v-hi);"/><rect x="63.3" y="408.68" width="15" height="11.55" fill-opacity="0.11" style="fill:var(--v-hi);"/><rect x="63.3" y="397.53" width="15" height="11.55" fill-opacity="0.12" style="fill:var(--v-hi);"/><rect x="63.3" y="386.38" width="15" height="11.55" fill-opacity="0.14" style="fill:var(--v-hi);"/><rect x="63.3" y="375.23" width="15" height="11.55" fill-opacity="0.15" style="fill:var(--v-hi);"/><rect x="63.3" y="364.08" width="15" height="11.55" fill-opacity="0.17" style="fill:var(--v-hi);"/><rect x="63.3" y="352.93" width="15" height="11.55" fill-opacity="0.19" style="fill:var(--v-hi);"/><rect x="63.3" y="341.78" width="15" height="11.55" fill-opacity="0.22" style="fill:var(--v-hi);"/><rect x="63.3" y="330.63" width="15" height="11.55" fill-opacity="0.24" style="fill:var(--v-hi);"/><rect x="63.3" y="319.47" width="15" height="11.55" fill-opacity="0.27" style="fill:var(--v-hi);"/><rect x="63.3" y="308.33" width="15" height="11.55" fill-opacity="0.31" style="fill:var(--v-hi);"/><rect x="63.3" y="297.18" width="15" height="11.55" fill-opacity="0.34" style="fill:var(--v-hi);"/><rect x="63.3" y="286.03" width="15" height="11.55" fill-opacity="0.38" style="fill:var(--v-hi);"/><rect x="63.3" y="274.88" width="15" height="11.55" fill-opacity="0.42" style="fill:var(--v-hi);"/><rect x="63.3" y="263.72" width="15" height="11.55" fill-opacity="0.46" style="fill:var(--v-hi);"/><rect x="63.3" y="252.58" width="15" height="11.55" fill-opacity="0.51" style="fill:var(--v-hi);"/><rect x="63.3" y="241.43" width="15" height="11.55" fill-opacity="0.56" style="fill:var(--v-hi);"/><rect x="77.9" y="464.43" width="15" height="11.55" fill-opacity="0.07" style="fill:var(--v-hi);"/><rect x="77.9" y="453.28" width="15" height="11.55" fill-opacity="0.08" style="fill:var(--v-hi);"/><rect x="77.9" y="442.13" width="15" height="11.55" fill-opacity="0.09" style="fill:var(--v-hi);"/><rect x="77.9" y="430.98" width="15" height="11.55" fill-opacity="0.1" style="fill:var(--v-hi);"/><rect x="77.9" y="419.83" width="15" height="11.55" fill-opacity="0.11" style="fill:var(--v-hi);"/><rect x="77.9" y="408.68" width="15" height="11.55" fill-opacity="0.12" style="fill:var(--v-hi);"/><rect x="77.9" y="397.53" width="15" height="11.55" fill-opacity="0.13" style="fill:var(--v-hi);"/><rect x="77.9" y="386.38" width="15" height="11.55" fill-opacity="0.15" style="fill:var(--v-hi);"/><rect x="77.9" y="375.23" width="15" height="11.55" fill-opacity="0.17" style="fill:var(--v-hi);"/><rect x="77.9" y="364.08" width="15" height="11.55" fill-opacity="0.19" style="fill:var(--v-hi);"/><rect x="77.9" y="352.93" width="15" height="11.55" fill-opacity="0.22" style="fill:var(--v-hi);"/><rect x="77.9" y="341.78" width="15" height="11.55" fill-opacity="0.24" style="fill:var(--v-hi);"/><rect x="77.9" y="330.63" width="15" height="11.55" fill-opacity="0.27" style="fill:var(--v-hi);"/><rect x="77.9" y="319.47" width="15" height="11.55" fill-opacity="0.3" style="fill:var(--v-hi);"/><rect x="77.9" y="308.33" width="15" height="11.55" fill-opacity="0.34" style="fill:var(--v-hi);"/><rect x="77.9" y="297.18" width="15" height="11.55" fill-opacity="0.38" style="fill:var(--v-hi);"/><rect x="77.9" y="286.03" width="15" height="11.55" fill-opacity="0.42" style="fill:var(--v-hi);"/><rect x="77.9" y="274.88" width="15" height="11.55" fill-opacity="0.46" style="fill:var(--v-hi);"/><rect x="77.9" y="263.72" width="15" height="11.55" fill-opacity="0.51" style="fill:var(--v-hi);"/><rect x="77.9" y="252.58" width="15" height="11.55" fill-opacity="0.56" style="fill:var(--v-hi);"/><rect x="92.5" y="464.43" width="15" height="11.55" fill-opacity="0.08" style="fill:var(--v-hi);"/><rect x="92.5" y="453.28" width="15" height="11.55" fill-opacity="0.08" style="fill:var(--v-hi);"/><rect x="92.5" y="442.13" width="15" height="11.55" fill-opacity="0.09" style="fill:var(--v-hi);"/><rect x="92.5" y="430.98" width="15" height="11.55" fill-opacity="0.11" style="fill:var(--v-hi);"/><rect x="92.5" y="419.83" width="15" height="11.55" fill-opacity="0.12" style="fill:var(--v-hi);"/><rect x="92.5" y="408.68" width="15" height="11.55" fill-opacity="0.13" style="fill:var(--v-hi);"/><rect x="92.5" y="397.53" width="15" height="11.55" fill-opacity="0.15" style="fill:var(--v-hi);"/><rect x="92.5" y="386.38" width="15" height="11.55" fill-opacity="0.17" style="fill:var(--v-hi);"/><rect x="92.5" y="375.23" width="15" height="11.55" fill-opacity="0.19" style="fill:var(--v-hi);"/><rect x="92.5" y="364.08" width="15" height="11.55" fill-opacity="0.21" style="fill:var(--v-hi);"/><rect x="92.5" y="352.93" width="15" height="11.55" fill-opacity="0.24" style="fill:var(--v-hi);"/><rect x="92.5" y="341.78" width="15" height="11.55" fill-opacity="0.27" style="fill:var(--v-hi);"/><rect x="92.5" y="330.63" width="15" height="11.55" fill-opacity="0.3" style="fill:var(--v-hi);"/><rect x="92.5" y="319.47" width="15" height="11.55" fill-opacity="0.34" style="fill:var(--v-hi);"/><rect x="92.5" y="308.33" width="15" height="11.55" fill-opacity="0.37" style="fill:var(--v-hi);"/><rect x="92.5" y="297.18" width="15" height="11.55" fill-opacity="0.41" style="fill:var(--v-hi);"/><rect x="92.5" y="286.03" width="15" height="11.55" fill-opacity="0.46" style="fill:var(--v-hi);"/><rect x="92.5" y="274.88" width="15" height="11.55" fill-opacity="0.51" style="fill:var(--v-hi);"/><rect x="92.5" y="263.72" width="15" height="11.55" fill-opacity="0.56" style="fill:var(--v-hi);"/><rect x="107.1" y="464.43" width="15" height="11.55" fill-opacity="0.08" style="fill:var(--v-hi);"/><rect x="107.1" y="453.28" width="15" height="11.55" fill-opacity="0.09" style="fill:var(--v-hi);"/><rect x="107.1" y="442.13" width="15" height="11.55" fill-opacity="0.1" style="fill:var(--v-hi);"/><rect x="107.1" y="430.98" width="15" height="11.55" fill-opacity="0.12" style="fill:var(--v-hi);"/><rect x="107.1" y="419.83" width="15" height="11.55" fill-opacity="0.13" style="fill:var(--v-hi);"/><rect x="107.1" y="408.68" width="15" height="11.55" fill-opacity="0.15" style="fill:var(--v-hi);"/><rect x="107.1" y="397.53" width="15" height="11.55" fill-opacity="0.17" style="fill:var(--v-hi);"/><rect x="107.1" y="386.38" width="15" height="11.55" fill-opacity="0.19" style="fill:var(--v-hi);"/><rect x="107.1" y="375.23" width="15" height="11.55" fill-opacity="0.21" style="fill:var(--v-hi);"/><rect x="107.1" y="364.08" width="15" height="11.55" fill-opacity="0.24" style="fill:var(--v-hi);"/><rect x="107.1" y="352.93" width="15" height="11.55" fill-opacity="0.27" style="fill:var(--v-hi);"/><rect x="107.1" y="341.78" width="15" height="11.55" fill-opacity="0.3" style="fill:var(--v-hi);"/><rect x="107.1" y="330.63" width="15" height="11.55" fill-opacity="0.33" style="fill:var(--v-hi);"/><rect x="107.1" y="319.47" width="15" height="11.55" fill-opacity="0.37" style="fill:var(--v-hi);"/><rect x="107.1" y="308.33" width="15" height="11.55" fill-opacity="0.41" style="fill:var(--v-hi);"/><rect x="107.1" y="297.18" width="15" height="11.55" fill-opacity="0.45" style="fill:var(--v-hi);"/><rect x="107.1" y="286.03" width="15" height="11.55" fill-opacity="0.5" style="fill:var(--v-hi);"/><rect x="107.1" y="274.88" width="15" height="11.55" fill-opacity="0.55" style="fill:var(--v-hi);"/><rect x="121.7" y="464.43" width="15" height="11.55" fill-opacity="0.09" style="fill:var(--v-hi);"/><rect x="121.7" y="453.28" width="15" height="11.55" fill-opacity="0.1" style="fill:var(--v-hi);"/><rect x="121.7" y="442.13" width="15" height="11.55" fill-opacity="0.12" style="fill:var(--v-hi);"/><rect x="121.7" y="430.98" width="15" height="11.55" fill-opacity="0.13" style="fill:var(--v-hi);"/><rect x="121.7" y="419.83" width="15" height="11.55" fill-opacity="0.15" style="fill:var(--v-hi);"/><rect x="121.7" y="408.68" width="15" height="11.55" fill-opacity="0.17" style="fill:var(--v-hi);"/><rect x="121.7" y="397.53" width="15" height="11.55" fill-opacity="0.19" style="fill:var(--v-hi);"/><rect x="121.7" y="386.38" width="15" height="11.55" fill-opacity="0.21" style="fill:var(--v-hi);"/><rect x="121.7" y="375.23" width="15" height="11.55" fill-opacity="0.24" style="fill:var(--v-hi);"/><rect x="121.7" y="364.08" width="15" height="11.55" fill-opacity="0.27" style="fill:var(--v-hi);"/><rect x="121.7" y="352.93" width="15" height="11.55" fill-opacity="0.3" style="fill:var(--v-hi);"/><rect x="121.7" y="341.78" width="15" height="11.55" fill-opacity="0.33" style="fill:var(--v-hi);"/><rect x="121.7" y="330.63" width="15" height="11.55" fill-opacity="0.37" style="fill:var(--v-hi);"/><rect x="121.7" y="319.47" width="15" height="11.55" fill-opacity="0.41" style="fill:var(--v-hi);"/><rect x="121.7" y="308.33" width="15" height="11.55" fill-opacity="0.45" style="fill:var(--v-hi);"/><rect x="121.7" y="297.18" width="15" height="11.55" fill-opacity="0.5" style="fill:var(--v-hi);"/><rect x="121.7" y="286.03" width="15" height="11.55" fill-opacity="0.55" style="fill:var(--v-hi);"/><rect x="136.3" y="464.43" width="15" height="11.55" fill-opacity="0.1" style="fill:var(--v-hi);"/><rect x="136.3" y="453.28" width="15" height="11.55" fill-opacity="0.12" style="fill:var(--v-hi);"/><rect x="136.3" y="442.13" width="15" height="11.55" fill-opacity="0.13" style="fill:var(--v-hi);"/><rect x="136.3" y="430.98" width="15" height="11.55" fill-opacity="0.15" style="fill:var(--v-hi);"/><rect x="136.3" y="419.83" width="15" height="11.55" fill-opacity="0.17" style="fill:var(--v-hi);"/><rect x="136.3" y="408.68" width="15" height="11.55" fill-opacity="0.19" style="fill:var(--v-hi);"/><rect x="136.3" y="397.53" width="15" height="11.55" fill-opacity="0.21" style="fill:var(--v-hi);"/><rect x="136.3" y="386.38" width="15" height="11.55" fill-opacity="0.24" style="fill:var(--v-hi);"/><rect x="136.3" y="375.23" width="15" height="11.55" fill-opacity="0.26" style="fill:var(--v-hi);"/><rect x="136.3" y="364.08" width="15" height="11.55" fill-opacity="0.3" style="fill:var(--v-hi);"/><rect x="136.3" y="352.93" width="15" height="11.55" fill-opacity="0.33" style="fill:var(--v-hi);"/><rect x="136.3" y="341.78" width="15" height="11.55" fill-opacity="0.37" style="fill:var(--v-hi);"/><rect x="136.3" y="330.63" width="15" height="11.55" fill-opacity="0.41" style="fill:var(--v-hi);"/><rect x="136.3" y="319.47" width="15" height="11.55" fill-opacity="0.45" style="fill:var(--v-hi);"/><rect x="136.3" y="308.33" width="15" height="11.55" fill-opacity="0.5" style="fill:var(--v-hi);"/><rect x="136.3" y="297.18" width="15" height="11.55" fill-opacity="0.55" style="fill:var(--v-hi);"/><rect x="136.3" y="286.03" width="15" height="11.55" fill-opacity="0.6" style="fill:var(--v-hi);"/><rect x="150.9" y="464.43" width="15" height="11.55" fill-opacity="0.12" style="fill:var(--v-hi);"/><rect x="150.9" y="453.28" width="15" height="11.55" fill-opacity="0.13" style="fill:var(--v-hi);"/><rect x="150.9" y="442.13" width="15" height="11.55" fill-opacity="0.15" style="fill:var(--v-hi);"/><rect x="150.9" y="430.98" width="15" height="11.55" fill-opacity="0.16" style="fill:var(--v-hi);"/><rect x="150.9" y="419.83" width="15" height="11.55" fill-opacity="0.19" style="fill:var(--v-hi);"/><rect x="150.9" y="408.68" width="15" height="11.55" fill-opacity="0.21" style="fill:var(--v-hi);"/><rect x="150.9" y="397.53" width="15" height="11.55" fill-opacity="0.23" style="fill:var(--v-hi);"/><rect x="150.9" y="386.38" width="15" height="11.55" fill-opacity="0.26" style="fill:var(--v-hi);"/><rect x="150.9" y="375.23" width="15" height="11.55" fill-opacity="0.29" style="fill:var(--v-hi);"/><rect x="150.9" y="364.08" width="15" height="11.55" fill-opacity="0.33" style="fill:var(--v-hi);"/><rect x="150.9" y="352.93" width="15" height="11.55" fill-opacity="0.36" style="fill:var(--v-hi);"/><rect x="150.9" y="341.78" width="15" height="11.55" fill-opacity="0.4" style="fill:var(--v-hi);"/><rect x="150.9" y="330.63" width="15" height="11.55" fill-opacity="0.45" style="fill:var(--v-hi);"/><rect x="150.9" y="319.47" width="15" height="11.55" fill-opacity="0.49" style="fill:var(--v-hi);"/><rect x="150.9" y="308.33" width="15" height="11.55" fill-opacity="0.54" style="fill:var(--v-hi);"/><rect x="150.9" y="297.18" width="15" height="11.55" fill-opacity="0.6" style="fill:var(--v-hi);"/><rect x="165.5" y="464.43" width="15" height="11.55" fill-opacity="0.13" style="fill:var(--v-hi);"/><rect x="165.5" y="453.28" width="15" height="11.55" fill-opacity="0.15" style="fill:var(--v-hi);"/><rect x="165.5" y="442.13" width="15" height="11.55" fill-opacity="0.16" style="fill:var(--v-hi);"/><rect x="165.5" y="430.98" width="15" height="11.55" fill-opacity="0.18" style="fill:var(--v-hi);"/><rect x="165.5" y="419.83" width="15" height="11.55" fill-opacity="0.21" style="fill:var(--v-hi);"/><rect x="165.5" y="408.68" width="15" height="11.55" fill-opacity="0.23" style="fill:var(--v-hi);"/><rect x="165.5" y="397.53" width="15" height="11.55" fill-opacity="0.26" style="fill:var(--v-hi);"/><rect x="165.5" y="386.38" width="15" height="11.55" fill-opacity="0.29" style="fill:var(--v-hi);"/><rect x="165.5" y="375.23" width="15" height="11.55" fill-opacity="0.32" style="fill:var(--v-hi);"/><rect x="165.5" y="364.08" width="15" height="11.55" fill-opacity="0.36" style="fill:var(--v-hi);"/><rect x="165.5" y="352.93" width="15" height="11.55" fill-opacity="0.4" style="fill:var(--v-hi);"/><rect x="165.5" y="341.78" width="15" height="11.55" fill-opacity="0.44" style="fill:var(--v-hi);"/><rect x="165.5" y="330.63" width="15" height="11.55" fill-opacity="0.49" style="fill:var(--v-hi);"/><rect x="165.5" y="319.47" width="15" height="11.55" fill-opacity="0.54" style="fill:var(--v-hi);"/><rect x="165.5" y="308.33" width="15" height="11.55" fill-opacity="0.59" style="fill:var(--v-hi);"/><rect x="180.1" y="464.43" width="15" height="11.55" fill-opacity="0.14" style="fill:var(--v-hi);"/><rect x="180.1" y="453.28" width="15" height="11.55" fill-opacity="0.16" style="fill:var(--v-hi);"/><rect x="180.1" y="442.13" width="15" height="11.55" fill-opacity="0.18" style="fill:var(--v-hi);"/><rect x="180.1" y="430.98" width="15" height="11.55" fill-opacity="0.21" style="fill:var(--v-hi);"/><rect x="180.1" y="419.83" width="15" height="11.55" fill-opacity="0.23" style="fill:var(--v-hi);"/><rect x="180.1" y="408.68" width="15" height="11.55" fill-opacity="0.26" style="fill:var(--v-hi);"/><rect x="180.1" y="397.53" width="15" height="11.55" fill-opacity="0.29" style="fill:var(--v-hi);"/><rect x="180.1" y="386.38" width="15" height="11.55" fill-opacity="0.32" style="fill:var(--v-hi);"/><rect x="180.1" y="375.23" width="15" height="11.55" fill-opacity="0.36" style="fill:var(--v-hi);"/><rect x="180.1" y="364.08" width="15" height="11.55" fill-opacity="0.4" style="fill:var(--v-hi);"/><rect x="180.1" y="352.93" width="15" height="11.55" fill-opacity="0.44" style="fill:var(--v-hi);"/><rect x="180.1" y="341.78" width="15" height="11.55" fill-opacity="0.49" style="fill:var(--v-hi);"/><rect x="180.1" y="330.63" width="15" height="11.55" fill-opacity="0.54" style="fill:var(--v-hi);"/><rect x="180.1" y="319.47" width="15" height="11.55" fill-opacity="0.59" style="fill:var(--v-hi);"/><rect x="194.7" y="464.43" width="15" height="11.55" fill-opacity="0.16" style="fill:var(--v-hi);"/><rect x="194.7" y="453.28" width="15" height="11.55" fill-opacity="0.18" style="fill:var(--v-hi);"/><rect x="194.7" y="442.13" width="15" height="11.55" fill-opacity="0.2" style="fill:var(--v-hi);"/><rect x="194.7" y="430.98" width="15" height="11.55" fill-opacity="0.23" style="fill:var(--v-hi);"/><rect x="194.7" y="419.83" width="15" height="11.55" fill-opacity="0.26" style="fill:var(--v-hi);"/><rect x="194.7" y="408.68" width="15" height="11.55" fill-opacity="0.29" style="fill:var(--v-hi);"/><rect x="194.7" y="397.53" width="15" height="11.55" fill-opacity="0.32" style="fill:var(--v-hi);"/><rect x="194.7" y="386.38" width="15" height="11.55" fill-opacity="0.36" style="fill:var(--v-hi);"/><rect x="194.7" y="375.23" width="15" height="11.55" fill-opacity="0.4" style="fill:var(--v-hi);"/><rect x="194.7" y="364.08" width="15" height="11.55" fill-opacity="0.44" style="fill:var(--v-hi);"/><rect x="194.7" y="352.93" width="15" height="11.55" fill-opacity="0.48" style="fill:var(--v-hi);"/><rect x="194.7" y="341.78" width="15" height="11.55" fill-opacity="0.53" style="fill:var(--v-hi);"/><rect x="194.7" y="330.63" width="15" height="11.55" fill-opacity="0.59" style="fill:var(--v-hi);"/><rect x="194.7" y="319.47" width="15" height="11.55" fill-opacity="0.64" style="fill:var(--v-hi);"/><rect x="209.3" y="464.43" width="15" height="11.55" fill-opacity="0.18" style="fill:var(--v-hi);"/><rect x="209.3" y="453.28" width="15" height="11.55" fill-opacity="0.2" style="fill:var(--v-hi);"/><rect x="209.3" y="442.13" width="15" height="11.55" fill-opacity="0.23" style="fill:var(--v-hi);"/><rect x="209.3" y="430.98" width="15" height="11.55" fill-opacity="0.25" style="fill:var(--v-hi);"/><rect x="209.3" y="419.83" width="15" height="11.55" fill-opacity="0.29" style="fill:var(--v-hi);"/><rect x="209.3" y="408.68" width="15" height="11.55" fill-opacity="0.32" style="fill:var(--v-hi);"/><rect x="209.3" y="397.53" width="15" height="11.55" fill-opacity="0.35" style="fill:var(--v-hi);"/><rect x="209.3" y="386.38" width="15" height="11.55" fill-opacity="0.39" style="fill:var(--v-hi);"/><rect x="209.3" y="375.23" width="15" height="11.55" fill-opacity="0.44" style="fill:var(--v-hi);"/><rect x="209.3" y="364.08" width="15" height="11.55" fill-opacity="0.48" style="fill:var(--v-hi);"/><rect x="209.3" y="352.93" width="15" height="11.55" fill-opacity="0.53" style="fill:var(--v-hi);"/><rect x="209.3" y="341.78" width="15" height="11.55" fill-opacity="0.58" style="fill:var(--v-hi);"/><rect x="209.3" y="330.63" width="15" height="11.55" fill-opacity="0.64" style="fill:var(--v-hi);"/><rect x="223.9" y="464.43" width="15" height="11.55" fill-opacity="0.2" style="fill:var(--v-hi);"/><rect x="223.9" y="453.28" width="15" height="11.55" fill-opacity="0.23" style="fill:var(--v-hi);"/><rect x="223.9" y="442.13" width="15" height="11.55" fill-opacity="0.25" style="fill:var(--v-hi);"/><rect x="223.9" y="430.98" width="15" height="11.55" fill-opacity="0.28" style="fill:var(--v-hi);"/><rect x="223.9" y="419.83" width="15" height="11.55" fill-opacity="0.32" style="fill:var(--v-hi);"/><rect x="223.9" y="408.68" width="15" height="11.55" fill-opacity="0.35" style="fill:var(--v-hi);"/><rect x="223.9" y="397.53" width="15" height="11.55" fill-opacity="0.39" style="fill:var(--v-hi);"/><rect x="223.9" y="386.38" width="15" height="11.55" fill-opacity="0.43" style="fill:var(--v-hi);"/><rect x="223.9" y="375.23" width="15" height="11.55" fill-opacity="0.48" style="fill:var(--v-hi);"/><rect x="223.9" y="364.08" width="15" height="11.55" fill-opacity="0.53" style="fill:var(--v-hi);"/><rect x="223.9" y="352.93" width="15" height="11.55" fill-opacity="0.58" style="fill:var(--v-hi);"/><rect x="223.9" y="341.78" width="15" height="11.55" fill-opacity="0.64" style="fill:var(--v-hi);"/><rect x="238.5" y="464.43" width="15" height="11.55" fill-opacity="0.22" style="fill:var(--v-hi);"/><rect x="238.5" y="453.28" width="15" height="11.55" fill-opacity="0.25" style="fill:var(--v-hi);"/><rect x="238.5" y="442.13" width="15" height="11.55" fill-opacity="0.28" style="fill:var(--v-hi);"/><rect x="238.5" y="430.98" width="15" height="11.55" fill-opacity="0.31" style="fill:var(--v-hi);"/><rect x="238.5" y="419.83" width="15" height="11.55" fill-opacity="0.35" style="fill:var(--v-hi);"/><rect x="238.5" y="408.68" width="15" height="11.55" fill-opacity="0.39" style="fill:var(--v-hi);"/><rect x="238.5" y="397.53" width="15" height="11.55" fill-opacity="0.43" style="fill:var(--v-hi);"/><rect x="238.5" y="386.38" width="15" height="11.55" fill-opacity="0.48" style="fill:var(--v-hi);"/><rect x="238.5" y="375.23" width="15" height="11.55" fill-opacity="0.52" style="fill:var(--v-hi);"/><rect x="238.5" y="364.08" width="15" height="11.55" fill-opacity="0.58" style="fill:var(--v-hi);"/><rect x="238.5" y="352.93" width="15" height="11.55" fill-opacity="0.63" style="fill:var(--v-hi);"/><rect x="253.1" y="464.43" width="15" height="11.55" fill-opacity="0.25" style="fill:var(--v-hi);"/><rect x="253.1" y="453.28" width="15" height="11.55" fill-opacity="0.28" style="fill:var(--v-hi);"/><rect x="253.1" y="442.13" width="15" height="11.55" fill-opacity="0.31" style="fill:var(--v-hi);"/><rect x="253.1" y="430.98" width="15" height="11.55" fill-opacity="0.35" style="fill:var(--v-hi);"/><rect x="253.1" y="419.83" width="15" height="11.55" fill-opacity="0.39" style="fill:var(--v-hi);"/><rect x="253.1" y="408.68" width="15" height="11.55" fill-opacity="0.43" style="fill:var(--v-hi);"/><rect x="253.1" y="397.53" width="15" height="11.55" fill-opacity="0.47" style="fill:var(--v-hi);"/><rect x="253.1" y="386.38" width="15" height="11.55" fill-opacity="0.52" style="fill:var(--v-hi);"/><rect x="253.1" y="375.23" width="15" height="11.55" fill-opacity="0.57" style="fill:var(--v-hi);"/><rect x="253.1" y="364.08" width="15" height="11.55" fill-opacity="0.63" style="fill:var(--v-hi);"/><rect x="253.1" y="352.93" width="15" height="11.55" fill-opacity="0.69" style="fill:var(--v-hi);"/><rect x="267.7" y="464.43" width="15" height="11.55" fill-opacity="0.28" style="fill:var(--v-hi);"/><rect x="267.7" y="453.28" width="15" height="11.55" fill-opacity="0.31" style="fill:var(--v-hi);"/><rect x="267.7" y="442.13" width="15" height="11.55" fill-opacity="0.34" style="fill:var(--v-hi);"/><rect x="267.7" y="430.98" width="15" height="11.55" fill-opacity="0.38" style="fill:var(--v-hi);"/><rect x="267.7" y="419.83" width="15" height="11.55" fill-opacity="0.42" style="fill:var(--v-hi);"/><rect x="267.7" y="408.68" width="15" height="11.55" fill-opacity="0.47" style="fill:var(--v-hi);"/><rect x="267.7" y="397.53" width="15" height="11.55" fill-opacity="0.52" style="fill:var(--v-hi);"/><rect x="267.7" y="386.38" width="15" height="11.55" fill-opacity="0.57" style="fill:var(--v-hi);"/><rect x="267.7" y="375.23" width="15" height="11.55" fill-opacity="0.62" style="fill:var(--v-hi);"/><rect x="267.7" y="364.08" width="15" height="11.55" fill-opacity="0.68" style="fill:var(--v-hi);"/><rect x="282.3" y="464.43" width="15" height="11.55" fill-opacity="0.31" style="fill:var(--v-hi);"/><rect x="282.3" y="453.28" width="15" height="11.55" fill-opacity="0.34" style="fill:var(--v-hi);"/><rect x="282.3" y="442.13" width="15" height="11.55" fill-opacity="0.38" style="fill:var(--v-hi);"/><rect x="282.3" y="430.98" width="15" height="11.55" fill-opacity="0.42" style="fill:var(--v-hi);"/><rect x="282.3" y="419.83" width="15" height="11.55" fill-opacity="0.47" style="fill:var(--v-hi);"/><rect x="282.3" y="408.68" width="15" height="11.55" fill-opacity="0.51" style="fill:var(--v-hi);"/><rect x="282.3" y="397.53" width="15" height="11.55" fill-opacity="0.57" style="fill:var(--v-hi);"/><rect x="282.3" y="386.38" width="15" height="11.55" fill-opacity="0.62" style="fill:var(--v-hi);"/><rect x="282.3" y="375.23" width="15" height="11.55" fill-opacity="0.68" style="fill:var(--v-hi);"/><rect x="296.9" y="464.43" width="15" height="11.55" fill-opacity="0.34" style="fill:var(--v-hi);"/><rect x="296.9" y="453.28" width="15" height="11.55" fill-opacity="0.38" style="fill:var(--v-hi);"/><rect x="296.9" y="442.13" width="15" height="11.55" fill-opacity="0.42" style="fill:var(--v-hi);"/><rect x="296.9" y="430.98" width="15" height="11.55" fill-opacity="0.46" style="fill:var(--v-hi);"/><rect x="296.9" y="419.83" width="15" height="11.55" fill-opacity="0.51" style="fill:var(--v-hi);"/><rect x="296.9" y="408.68" width="15" height="11.55" fill-opacity="0.56" style="fill:var(--v-hi);"/><rect x="296.9" y="397.53" width="15" height="11.55" fill-opacity="0.62" style="fill:var(--v-hi);"/><rect x="296.9" y="386.38" width="15" height="11.55" fill-opacity="0.68" style="fill:var(--v-hi);"/><rect x="296.9" y="375.23" width="15" height="11.55" fill-opacity="0.74" style="fill:var(--v-hi);"/><rect x="311.5" y="464.43" width="15" height="11.55" fill-opacity="0.38" style="fill:var(--v-hi);"/><rect x="311.5" y="453.28" width="15" height="11.55" fill-opacity="0.42" style="fill:var(--v-hi);"/><rect x="311.5" y="442.13" width="15" height="11.55" fill-opacity="0.46" style="fill:var(--v-hi);"/><rect x="311.5" y="430.98" width="15" height="11.55" fill-opacity="0.51" style="fill:var(--v-hi);"/><rect x="311.5" y="419.83" width="15" height="11.55" fill-opacity="0.56" style="fill:var(--v-hi);"/><rect x="311.5" y="408.68" width="15" height="11.55" fill-opacity="0.61" style="fill:var(--v-hi);"/><rect x="311.5" y="397.53" width="15" height="11.55" fill-opacity="0.67" style="fill:var(--v-hi);"/><rect x="311.5" y="386.38" width="15" height="11.55" fill-opacity="0.74" style="fill:var(--v-hi);"/><rect x="326.1" y="464.43" width="15" height="11.55" fill-opacity="0.41" style="fill:var(--v-hi);"/><rect x="326.1" y="453.28" width="15" height="11.55" fill-opacity="0.46" style="fill:var(--v-hi);"/><rect x="326.1" y="442.13" width="15" height="11.55" fill-opacity="0.51" style="fill:var(--v-hi);"/><rect x="326.1" y="430.98" width="15" height="11.55" fill-opacity="0.56" style="fill:var(--v-hi);"/><rect x="326.1" y="419.83" width="15" height="11.55" fill-opacity="0.61" style="fill:var(--v-hi);"/><rect x="326.1" y="408.68" width="15" height="11.55" fill-opacity="0.67" style="fill:var(--v-hi);"/><rect x="326.1" y="397.53" width="15" height="11.55" fill-opacity="0.73" style="fill:var(--v-hi);"/><rect x="340.7" y="464.43" width="15" height="11.55" fill-opacity="0.45" style="fill:var(--v-hi);"/><rect x="340.7" y="453.28" width="15" height="11.55" fill-opacity="0.5" style="fill:var(--v-hi);"/><rect x="340.7" y="442.13" width="15" height="11.55" fill-opacity="0.55" style="fill:var(--v-hi);"/><rect x="340.7" y="430.98" width="15" height="11.55" fill-opacity="0.61" style="fill:var(--v-hi);"/><rect x="340.7" y="419.83" width="15" height="11.55" fill-opacity="0.67" style="fill:var(--v-hi);"/><rect x="340.7" y="408.68" width="15" height="11.55" fill-opacity="0.73" style="fill:var(--v-hi);"/><rect x="355.3" y="464.43" width="15" height="11.55" fill-opacity="0.5" style="fill:var(--v-hi);"/><rect x="355.3" y="453.28" width="15" height="11.55" fill-opacity="0.55" style="fill:var(--v-hi);"/><rect x="355.3" y="442.13" width="15" height="11.55" fill-opacity="0.6" style="fill:var(--v-hi);"/><rect x="355.3" y="430.98" width="15" height="11.55" fill-opacity="0.66" style="fill:var(--v-hi);"/><rect x="355.3" y="419.83" width="15" height="11.55" fill-opacity="0.72" style="fill:var(--v-hi);"/><rect x="355.3" y="408.68" width="15" height="11.55" fill-opacity="0.79" style="fill:var(--v-hi);"/><rect x="369.9" y="464.43" width="15" height="11.55" fill-opacity="0.55" style="fill:var(--v-hi);"/><rect x="369.9" y="453.28" width="15" height="11.55" fill-opacity="0.6" style="fill:var(--v-hi);"/><rect x="369.9" y="442.13" width="15" height="11.55" fill-opacity="0.66" style="fill:var(--v-hi);"/><rect x="369.9" y="430.98" width="15" height="11.55" fill-opacity="0.72" style="fill:var(--v-hi);"/><rect x="369.9" y="419.83" width="15" height="11.55" fill-opacity="0.78" style="fill:var(--v-hi);"/><rect x="384.5" y="464.43" width="15" height="11.55" fill-opacity="0.6" style="fill:var(--v-hi);"/><rect x="384.5" y="453.28" width="15" height="11.55" fill-opacity="0.65" style="fill:var(--v-hi);"/><rect x="384.5" y="442.13" width="15" height="11.55" fill-opacity="0.72" style="fill:var(--v-hi);"/><rect x="384.5" y="430.98" width="15" height="11.55" fill-opacity="0.78" style="fill:var(--v-hi);"/><rect x="399.1" y="464.43" width="15" height="11.55" fill-opacity="0.65" style="fill:var(--v-hi);"/><rect x="399.1" y="453.28" width="15" height="11.55" fill-opacity="0.71" style="fill:var(--v-hi);"/><rect x="399.1" y="442.13" width="15" height="11.55" fill-opacity="0.78" style="fill:var(--v-hi);"/><rect x="399.1" y="430.98" width="15" height="11.55" fill-opacity="0.85" style="fill:var(--v-hi);"/><rect x="413.7" y="464.43" width="15" height="11.55" fill-opacity="0.71" style="fill:var(--v-hi);"/><rect x="413.7" y="453.28" width="15" height="11.55" fill-opacity="0.77" style="fill:var(--v-hi);"/><rect x="413.7" y="442.13" width="15" height="11.55" fill-opacity="0.84" style="fill:var(--v-hi);"/><rect x="428.3" y="464.43" width="15" height="11.55" fill-opacity="0.77" style="fill:var(--v-hi);"/><rect x="428.3" y="453.28" width="15" height="11.55" fill-opacity="0.84" style="fill:var(--v-hi);"/><rect x="442.9" y="464.43" width="15" height="11.55" fill-opacity="0.83" style="fill:var(--v-hi);"/><rect x="457.5" y="464.43" width="15" height="11.55" fill-opacity="0.9" style="fill:var(--v-hi);"/><g data-limit="labor 40"><path d="M70.6 245.32L59.04 235.85M59.04 235.85L56 233.36M85.2 255.01L73.13 247M73.13 247L70.6 245.32M99.8 264.17L90.2 258.15M90.2 258.15L85.2 255.01M114.4 273L108.28 269.3M108.28 269.3L99.8 264.17M129 281.63L127 280.45M127 280.45L114.4 273M143.6 290.13L129 281.63M158.2 298.54L146.15 291.6M146.15 291.6L143.6 290.13M172.8 306.84L165.6 302.75M165.6 302.75L158.2 298.54M187.4 315.07L185.33 313.9M185.33 313.9L172.8 306.84M202 323.26L187.4 315.07M216.6 331.41L205.21 325.05M205.21 325.05L202 323.26M231.2 339.51L225.24 336.2M225.24 336.2L216.6 331.41M245.8 347.56L245.42 347.35M245.42 347.35L231.2 339.51M260.4 355.63L245.8 347.56M275 363.66L265.62 358.5M265.62 358.5L260.4 355.63M289.6 371.66L285.93 369.65M285.93 369.65L275 363.66M304.2 379.65L289.6 371.66M318.8 387.66L306.29 380.8M306.29 380.8L304.2 379.65M333.4 395.64L326.66 391.95M326.66 391.95L318.8 387.66M348 403.59L347.1 403.1M347.1 403.1L333.4 395.64M362.6 411.57L348 403.59M377.2 419.55L367.5 414.25M367.5 414.25L362.6 411.57M391.8 427.5L387.94 425.4M387.94 425.4L377.2 419.55M406.4 435.46L391.8 427.5M421 443.45L408.39 436.55M408.39 436.55L406.4 435.46M435.6 451.42L428.79 447.7M428.79 447.7L421 443.45M450.2 459.37L449.24 458.85M449.24 458.85L435.6 451.42M464.8 467.37L450.2 459.37M469.61 470L464.8 467.37" fill="none" stroke-width="1.7" style="stroke:var(--v-ink);"/><title>limit: labor 40</title></g><text x="193.4" y="309.07" class="ink">labor 40</text><g data-limit="timber supply 90"><path d="M70.6 168.95L56 157.8M56 157.8L56 157.8M85.2 180.1L70.6 168.95M70.6 168.95L70.6 168.95M99.8 191.25L85.2 180.1M85.2 180.1L85.2 180.1M114.4 202.4L99.8 191.25M99.8 191.25L99.8 191.25M129 213.55L114.4 202.4M114.4 202.4L114.4 202.4M143.6 224.7L129 213.55M129 213.55L129 213.55M158.2 235.85L143.6 224.7M143.6 224.7L143.6 224.7M172.8 247L158.2 235.85M158.2 235.85L158.2 235.85M187.4 258.15L172.8 247M172.8 247L172.8 247M202 269.3L187.4 258.15M187.4 258.15L187.4 258.15M216.6 280.45L202 269.3M202 269.3L202 269.3M231.2 291.6L216.6 280.45M216.6 280.45L216.6 280.45M245.8 302.75L231.2 291.6M231.2 291.6L231.2 291.6M260.4 313.9L245.8 302.75M245.8 302.75L245.8 302.75M275 325.05L260.4 313.9M260.4 313.9L260.4 313.9M289.6 336.2L275 325.05M275 325.05L275 325.05M304.2 347.35L289.6 336.2M289.6 336.2L289.6 336.2M318.8 358.5L304.2 347.35M304.2 347.35L304.2 347.35M333.4 369.65L318.8 358.5M318.8 358.5L318.8 358.5M348 380.8L333.4 369.65M333.4 369.65L333.4 369.65M362.6 391.95L348 380.8M348 380.8L348 380.8M377.2 403.1L362.6 391.95M362.6 391.95L362.6 391.95M391.8 414.25L377.2 403.1M377.2 403.1L377.2 403.1M406.4 425.4L391.8 414.25M391.8 414.25L391.8 414.25M421 436.55L406.4 425.4M406.4 425.4L406.4 425.4M435.6 447.7L421 436.55M421 436.55L421 436.55M450.2 458.85L435.6 447.7M435.6 447.7L435.6 447.7M464.8 470L450.2 458.85M450.2 458.85L450.2 458.85M464.8 470L464.8 470" fill="none" stroke-width="1.7" stroke-dasharray="6 4" style="stroke:var(--v-ink);"/><title>limit: timber supply 90</title></g><text x="178.8" y="241" class="ink">timber supply 90</text><g data-limit="cut capacity 90"><path d="M70.6 68.6L56 57.45M56 57.45L56 57.45M85.2 79.75L70.6 68.6M70.6 68.6L70.6 68.6M99.8 90.9L85.2 79.75M85.2 79.75L85.2 79.75M114.4 102.05L99.8 90.9M99.8 90.9L99.8 90.9M129 113.2L114.4 102.05M114.4 102.05L114.4 102.05M143.6 124.35L129 113.2M129 113.2L129 113.2M158.2 135.5L143.6 124.35M143.6 124.35L143.6 124.35M172.8 146.65L158.2 135.5M158.2 135.5L158.2 135.5M187.4 157.8L172.8 146.65M172.8 146.65L172.8 146.65M202 168.95L187.4 157.8M187.4 157.8L187.4 157.8M216.6 180.1L202 168.95M202 168.95L202 168.95M231.2 191.25L216.6 180.1M216.6 180.1L216.6 180.1M245.8 202.4L231.2 191.25M231.2 191.25L231.2 191.25M260.4 213.55L245.8 202.4M245.8 202.4L245.8 202.4M275 224.7L260.4 213.55M260.4 213.55L260.4 213.55M289.6 235.85L275 224.7M275 224.7L275 224.7M304.2 247L289.6 235.85M289.6 235.85L289.6 235.85M318.8 258.15L304.2 247M304.2 247L304.2 247M333.4 269.3L318.8 258.15M318.8 258.15L318.8 258.15M348 280.45L333.4 269.3M333.4 269.3L333.4 269.3M362.6 291.6L348 280.45M348 280.45L348 280.45M377.2 302.75L362.6 291.6M362.6 291.6L362.6 291.6M391.8 313.9L377.2 302.75M377.2 302.75L377.2 302.75M406.4 325.05L391.8 313.9M391.8 313.9L391.8 313.9M421 336.2L406.4 325.05M406.4 325.05L406.4 325.05M435.6 347.35L421 336.2M421 336.2L421 336.2M450.2 358.5L435.6 347.35M435.6 347.35L435.6 347.35M464.8 369.65L450.2 358.5M450.2 358.5L450.2 358.5M479.4 380.8L464.8 369.65M464.8 369.65L464.8 369.65M494 391.95L479.4 380.8M479.4 380.8L479.4 380.8M508.6 403.1L494 391.95M494 391.95L494 391.95M523.2 414.25L508.6 403.1M508.6 403.1L508.6 403.1M537.8 425.4L523.2 414.25M523.2 414.25L523.2 414.25M552.4 436.55L537.8 425.4M537.8 425.4L537.8 425.4M567 447.7L552.4 436.55M552.4 436.55L552.4 436.55M581.6 458.85L567 447.7M567 447.7L567 447.7M596.2 470L581.6 458.85M581.6 458.85L581.6 458.85M596.2 470L596.2 470" fill="none" stroke-width="1.7" style="stroke:var(--v-ink);"/><title>limit: cut capacity 90</title></g><text x="237.2" y="185.25" class="ink">cut capacity 90</text><g data-contour="780"><path d="M362.6 416.34L359.68 414.25M377.2 426.79L375.25 425.4M391.8 437.25L390.83 436.55M406.4 447.7L406.4 447.7M406.4 447.7L391.8 437.25M421 458.15L406.4 447.7M435.6 468.61L421.97 458.85" fill="none" stroke-width="1.4" style="stroke:var(--v-panel);"/></g><text x="356.6" y="430.34" class="ink" text-anchor="end">$780</text><g data-contour="800"><path d="M406.4 438.41L403.8 436.55M421 448.86L419.38 447.7M435.6 459.31L434.95 458.85" fill="none" stroke-width="1.4" style="stroke:var(--v-panel);"/></g><text x="400.4" y="452.41" class="ink" text-anchor="end">$800</text><g data-climb="0" data-optimum="1" data-projected="1"><path d="M56 470L69.91 399.21L97.72 257.62L120.46 131.37L121.09 139.4L125.8 135.29L126.68 142.35L131.34 139.36L133.59 151.38L141.82 147.06L144.99 155.01L153.31 155.49L169.88 168.87L190.15 182.55L210.01 197.13L228.71 210.87L246.07 223.61L262.01 235.31L276.52 245.97L289.64 255.61L301.45 264.28L312.01 272.04L321.44 278.96L329.83 285.12L337.27 290.58L343.85 295.41L349.66 299.68L354.8 303.45L359.31 306.77L363.29 309.69L366.79 312.26L369.86 314.51L372.55 316.49L374.92 318.23L376.99 319.75L378.8 321.08L380.39 322.25L381.78 323.27L383 324.16L384.07 324.95L385 325.63L385.82 326.23L386.53 326.76L387.15 327.21L387.7 327.61L388.17 327.96L388.59 328.27L388.95 328.53L389.27 328.77L389.55 328.97L389.79 329.15L390 329.31L390.19 329.44L390.35 329.56L390.49 329.67L390.62 329.76L390.73 329.83L390.82 329.91L390.9 329.97L390.97 330.02L391.03 330.06L391.09 330.11L391.14 330.14L391.18 330.17L391.22 330.2L391.25 330.22L391.28 330.24L391.3 330.26L391.32 330.27L391.34 330.29L391.36 330.3L391.37 330.31L391.38 330.32L391.39 330.33L391.4 330.34L391.41 330.34L391.42 330.35L391.43 330.35L391.43 330.35L391.44 330.36L391.44 330.36L391.44 330.36L391.45 330.37L391.45 330.37L391.45 330.37L391.46 330.37L391.46 330.37L391.46 330.37L391.46 330.37L391.46 330.37L391.46 330.37L391.46 330.38L391.46 330.38L391.46 330.38L391.46 330.38L391.46 330.38L392.27 330.97L393.86 332.14L396.95 334.41L402.83 338.73L409.46 343.59L415.24 347.84L420.3 351.55L424.7 354.79L428.54 357.6L431.88 360.06L434.79 362.19L437.32 364.05L439.52 365.66L441.43 367.07L443.08 368.28L444.53 369.34L445.78 370.26L446.86 371.05L447.8 371.75L448.62 372.35L449.33 372.87L449.94 373.32L450.47 373.71L450.94 374.05L451.34 374.34L451.68 374.6L451.98 374.82L452.25 375.01L452.47 375.18L452.67 375.32L452.84 375.45L452.99 375.55L453.11 375.65L453.23 375.73L453.32 375.8L453.4 375.86L453.48 375.92L453.54 375.96L453.59 376L453.64 376.03L453.68 376.07L453.72 376.09L453.74 376.11L453.77 376.13L453.79 376.15L453.81 376.16L453.83 376.18L453.85 376.19L453.86 376.2L453.87 376.21L453.88 376.21L453.89 376.22L453.9 376.22L453.9 376.23L453.91 376.23L453.91 376.23L453.92 376.24L453.92 376.24L453.92 376.25L453.93 376.25L453.93 376.25L453.93 376.25L453.93 376.25L453.93 376.25L453.93 376.25L453.94 376.25L453.94 376.26L453.94 376.26L453.94 376.26L453.94 376.26L453.94 376.26" fill="none" stroke-width="1.3" opacity="0.45" stroke-dasharray="4 3" style="stroke:var(--v-s2);"/><rect x="53" y="467" width="6" height="6" stroke-width="1.3" style="fill:var(--v-canvas);stroke:var(--v-s2);"/><title>climb, projected onto this slice</title></g><g data-climb="1" data-optimum="1" data-projected="1"><path d="M581.6 470L580.8 469.41L579.19 468.23L575.98 465.87L569.55 461.15L561.52 455.25L553.48 449.35L545.45 443.45L537.41 437.55L529.38 431.66L521.35 425.75L513.31 419.85L505.28 413.95L497.24 408.06L489.21 402.16L481.18 396.25L473.14 390.36L465.11 384.46L457.07 378.56L449.04 372.66L441.49 367.11L434.95 362.31L429.29 358.15L424.39 354.55L420.13 351.43L416.43 348.71L413.22 346.35L410.42 344.3L407.99 342.52L405.88 340.96L404.03 339.61L402.43 338.43L401.03 337.4L399.81 336.51L398.75 335.73L397.82 335.05L397.02 334.46L396.31 333.94L395.7 333.48L395.16 333.09L394.69 332.75L394.28 332.45L393.93 332.19L393.61 331.96L393.34 331.76L393.11 331.58L392.9 331.43L392.72 331.3L392.56 331.18L392.42 331.08L392.3 330.99L392.19 330.91L392.1 330.85L392.02 330.79L391.95 330.74L391.89 330.69L391.84 330.65L391.79 330.62L391.75 330.59L391.72 330.56L391.68 330.54L391.66 330.52L391.63 330.5L391.61 330.49L391.59 330.47L391.58 330.46L391.56 330.45L391.55 330.44L391.54 330.44L391.53 330.43L391.53 330.42L391.52 330.42L391.51 330.41L391.51 330.41L391.5 330.41L391.5 330.4L391.49 330.4L391.49 330.4L391.49 330.4L391.48 330.4L391.48 330.39L391.48 330.39L391.48 330.39L391.48 330.39L391.48 330.39L391.48 330.39L391.48 330.39L391.48 330.39L391.47 330.39L391.47 330.39L391.47 330.39L392.28 330.98L393.86 332.14L396.96 334.41L402.84 338.73L409.46 343.59L415.24 347.84L420.3 351.55L424.7 354.79L428.54 357.6L431.88 360.06L434.79 362.19L437.31 364.05L439.51 365.66L441.42 367.06L443.08 368.28L444.52 369.34L445.77 370.26L446.85 371.05L447.8 371.75L448.61 372.34L449.32 372.86L449.93 373.31L450.47 373.71L450.93 374.04L451.33 374.34L451.68 374.6L451.98 374.81L452.24 375.01L452.47 375.17L452.66 375.31L452.83 375.44L452.98 375.55L453.11 375.64L453.22 375.73L453.31 375.79L453.39 375.85L453.47 375.91L453.53 375.96L453.58 375.99L453.63 376.03L453.67 376.06L453.71 376.08L453.74 376.11L453.77 376.13L453.79 376.14L453.81 376.16L453.82 376.17L453.84 376.18L453.85 376.19L453.86 376.2L453.87 376.21L453.88 376.21L453.89 376.22L453.89 376.22L453.9 376.23L453.91 376.23L453.91 376.23L453.91 376.23L453.92 376.24L453.92 376.24L453.92 376.24L453.92 376.25L453.93 376.25L453.93 376.25L453.93 376.25L453.93 376.25L453.93 376.25L453.93 376.25L453.93 376.25L453.93 376.25L453.93 376.25" fill="none" stroke-width="1.3" opacity="0.45" stroke-dasharray="4 3" style="stroke:var(--v-s2);"/><rect x="578.6" y="467" width="6" height="6" stroke-width="1.3" style="fill:var(--v-canvas);stroke:var(--v-s2);"/><title>climb, projected onto this slice</title></g><g data-climb="2" data-optimum="0" data-projected="1"><path d="M56 470L69.91 399.21L97.72 257.62L105.37 240.1L105.26 250.75L110.01 243.52L110.14 253.38L114.9 247.11L115.27 256.13L120.02 250.86L120.63 258.97L125.35 254.77L126.2 261.91L130.87 258.83L133.08 271.02L141.31 266.5L144.43 274.65L152.74 274.89L169.13 289.19L189.06 301.56L208.98 316.19L227.75 329.97L245.18 342.77L261.19 354.53L275.78 365.24L288.98 374.93L300.85 383.65L311.48 391.45L320.97 398.42L329.41 404.62L336.89 410.11L343.52 414.98L349.37 419.28L354.54 423.08L359.09 426.41L363.09 429.36L366.61 431.94L369.7 434.21L372.42 436.2L374.8 437.95L376.88 439.48L378.71 440.83L380.31 442L381.71 443.03L382.94 443.93L384.02 444.72L384.96 445.41L385.78 446.01L386.49 446.54L387.12 447L387.67 447.4L388.15 447.76L388.57 448.06L388.94 448.34L389.26 448.57L389.54 448.78L389.78 448.95L390 449.11L390.18 449.25L390.34 449.37L390.49 449.47L390.61 449.56L390.72 449.65L390.81 449.71L390.9 449.77L390.97 449.82L391.03 449.87L391.09 449.91L391.14 449.95L391.18 449.98L391.22 450.01L391.25 450.03L391.27 450.05L391.3 450.07L391.32 450.09L391.34 450.1L391.36 450.11L391.37 450.12L391.38 450.13L391.39 450.14L391.4 450.15L391.41 450.15L391.42 450.16L391.43 450.16L391.43 450.16L391.44 450.17L391.44 450.17L391.44 450.18L391.45 450.18L391.45 450.18L391.45 450.18L391.46 450.18L391.46 450.19L391.46 450.19L391.46 450.19L391.46 450.19L391.46 450.19L391.46 450.19L391.46 450.19L391.46 450.19L391.46 450.19L391.46 450.19L392.27 450.78L393.86 451.95L396.95 454.22L402.83 458.54L409.46 463.4L415.24 467.65L418.87 470L419.93 470L420.96 470L421.95 470L422.92 470L423.86 470L424.77 470L425.65 470L426.51 470L427.34 470L428.15 470L428.93 470L429.69 470L430.43 470L431.14 470L431.84 470L432.51 470L433.16 470L433.8 470L434.41 470L435 470L435.58 470L436.14 470L436.68 470L437.21 470L437.72 470L438.21 470L438.7 470L439.16 470L439.61 470L440.05 470L440.47 470L440.89 470L441.29 470L441.67 470L442.05 470L442.41 470L442.77 470L443.11 470L443.44 470L443.76 470L444.07 470L444.37 470L444.67 470L444.95 470L445.23 470L445.49 470L445.75 470L446 470L446.25 470L446.48 470L446.71 470L446.93 470L447.15 470L447.36 470L447.56 470L447.76 470L447.95 470L448.13 470L448.31 470L448.48 470L448.65 470L448.81 470L448.97 470L449.12 470L449.27 470L449.41 470L449.55 470L449.69 470L449.82 470L449.94 470L450.07 470L450.19 470L450.3 470L450.41 470L450.52 470L450.63 470L450.73 470L450.83 470L450.92 470L451.02 470L451.11 470L451.19 470L451.28 470L451.36 470L451.44 470L451.52 470L451.59 470L451.66 470L451.73 470L451.8 470L451.87 470L451.93 470L451.99 470L452.05 470L452.11 470L452.17 470L452.22 470L452.28 470L452.33 470L452.38 470L452.43 470L452.47 470L452.52 470L452.56 470L452.6 470L452.64 470L452.68 470L452.72 470L452.76 470L452.8 470L452.83 470L452.87 470L452.9 470L452.93 470L452.96 470L452.99 470L453.02 470L453.05 470L453.08 470L453.11 470L453.13 470L453.16 470L453.18 470L453.2 470L453.23 470L453.25 470L453.27 470L453.29 470L453.31 470L453.33 470L453.35 470L453.37 470L453.39 470L453.4 470L453.42 470L453.44 470L453.45 470L453.46 470L453.48 470L453.49 470L453.51 470L453.52 470L453.53 470L453.55 470L453.56 470L453.57 470L453.58 470L453.59 470L453.6 470L453.62 470L453.63 470L453.63 470L453.65 470L453.65 470L453.66 470L453.67 470L453.68 470L453.69 470L453.7 470L453.7 470L453.71 470L453.72 470L453.72 470L453.73 470L453.74 470L453.74 470L453.75 470L453.76 470L453.76 470L453.77 470L453.77 470L453.78 470L453.78 470L453.79 470L453.79 470L453.8 470L453.8 470L453.81 470L453.81 470L453.81 470L453.82 470L453.82 470L453.83 470L453.83 470L453.83 470L453.84 470L453.84 470L453.84 470L453.85 470L453.85 470L453.85 470L453.86 470L453.86 470L453.86 470L453.86 470L453.86 470L453.87 470L453.87 470L453.87 470L453.87 470L453.88 470L453.88 470L453.88 470L453.88 470L453.89 470L453.89 470L453.89 470L453.89 470L453.89 470L453.89 470L453.89 470L453.9 470L453.9 470L453.9 470L453.9 470L453.9 470L453.9 470L453.91 470L453.91 470L453.91 470L453.91 470L453.91 470L453.91 470L453.91 470L453.91 470L453.91 470L453.91 470L453.91 470L453.92 470L453.92 470L453.92 470L453.92 470L453.92 470L453.92 470L453.92 470L453.92 470L453.92 470L453.92 470L453.92 470L453.92 470L453.93 470L453.93 470L453.93 470L453.93 470L453.93 470L453.93 470L453.93 470L453.93 470L453.93 470L453.93 470L453.93 470L453.93 470L453.93 470L453.93 470L453.93 470L453.93 470L453.93 470L453.93 470L453.93 470L453.93 470L453.93 470L453.93 470L453.93 470L453.93 470L453.93 470" fill="none" stroke-width="1.3" opacity="0.45" stroke-dasharray="4 3" style="stroke:var(--v-hi);"/><rect x="53" y="467" width="6" height="6" stroke-width="1.3" style="fill:var(--v-canvas);stroke:var(--v-hi);"/><title>climb, projected onto this slice</title></g><g data-climb="3" data-optimum="0" data-projected="1"><path d="M453.12 470L452.32 469.41L450.72 468.23L447.6 465.95L441.72 461.63L435.15 456.8L429.47 452.63L424.54 449.01L420.26 445.87L416.54 443.14L413.31 440.77L410.51 438.71L408.07 436.92L405.94 435.36L404.09 434L402.48 432.81L401.07 431.78L399.85 430.89L398.78 430.1L397.85 429.41L397.04 428.82L396.33 428.3L395.72 427.85L395.18 427.45L394.71 427.11L394.29 426.8L393.93 426.54L393.62 426.31L393.35 426.11L393.11 425.94L392.9 425.78L392.72 425.65L392.56 425.53L392.42 425.43L392.3 425.34L392.2 425.26L392.1 425.19L392.02 425.14L391.95 425.08L391.89 425.04L391.84 425L391.79 424.97L391.75 424.94L391.72 424.91L391.68 424.89L391.66 424.86L391.63 424.85L391.61 424.83L391.6 424.82L391.58 424.81L391.56 424.8L391.55 424.79L391.54 424.78L391.53 424.78L391.53 424.77L391.52 424.76L391.51 424.76L391.51 424.75L391.5 424.75L391.5 424.75L391.49 424.75L391.49 424.74L391.49 424.74L391.48 424.74L391.48 424.74L391.48 424.74L391.48 424.74L391.48 424.74L391.48 424.74L391.48 424.73L391.48 424.73L391.48 424.73L391.47 424.73L391.47 424.73L391.47 424.73L392.28 425.32L393.86 426.49L396.96 428.76L402.84 433.08L409.46 437.94L415.24 442.19L420.3 445.9L424.7 449.13L428.54 451.95L431.88 454.4L434.79 456.54L437.31 458.39L439.51 460.01L441.42 461.41L443.08 462.63L444.52 463.68L445.77 464.6L446.85 465.4L447.8 466.09L448.61 466.69L449.32 467.21L449.93 467.66L450.47 468.05L450.93 468.39L451.33 468.68L451.68 468.94L451.98 469.16L452.24 469.35L452.47 469.52L452.66 469.67L452.83 469.79L452.98 469.89L453.11 469.99L453.14 470L453.17 470L453.19 470L453.21 470L453.24 470L453.26 470L453.28 470L453.3 470L453.32 470L453.34 470L453.36 470L453.37 470L453.39 470L453.41 470L453.42 470L453.44 470L453.46 470L453.47 470L453.49 470L453.5 470L453.51 470L453.52 470L453.54 470L453.55 470L453.56 470L453.57 470L453.58 470L453.6 470L453.6 470L453.62 470L453.63 470L453.63 470L453.65 470L453.65 470L453.66 470L453.67 470L453.68 470L453.69 470L453.7 470L453.7 470L453.71 470L453.72 470L453.72 470L453.73 470L453.74 470L453.74 470L453.75 470L453.75 470L453.76 470L453.77 470L453.77 470L453.77 470L453.78 470L453.79 470L453.79 470L453.79 470L453.8 470L453.8 470L453.81 470L453.81 470L453.81 470L453.82 470L453.82 470L453.83 470L453.83 470L453.83 470L453.84 470L453.84 470L453.84 470L453.84 470L453.85 470L453.85 470L453.85 470L453.86 470L453.86 470L453.86 470L453.86 470L453.86 470L453.87 470L453.87 470L453.87 470L453.87 470L453.88 470L453.88 470L453.88 470L453.88 470L453.88 470L453.89 470L453.89 470L453.89 470L453.89 470L453.89 470L453.89 470L453.89 470L453.89 470L453.9 470L453.9 470L453.9 470L453.9 470L453.9 470L453.9 470L453.9 470L453.9 470L453.91 470L453.91 470L453.91 470L453.91 470L453.91 470L453.91 470L453.91 470L453.91 470L453.91 470L453.91 470L453.91 470L453.91 470L453.91 470L453.91 470L453.91 470L453.92 470L453.92 470L453.92 470L453.92 470L453.92 470L453.92 470L453.92 470L453.92 470L453.92 470L453.92 470L453.92 470L453.92 470L453.92 470L453.92 470L453.92 470L453.92 470L453.92 470L453.92 470L453.93 470L453.93 470L453.93 470L453.93 470L453.93 470L453.93 470L453.93 470L453.93 470" fill="none" stroke-width="1.3" opacity="0.45" stroke-dasharray="4 3" style="stroke:var(--v-hi);"/><rect x="450.12" y="467" width="6" height="6" stroke-width="1.3" style="fill:var(--v-canvas);stroke:var(--v-hi);"/><title>climb, projected onto this slice</title></g><g data-climb="4" data-optimum="7" data-projected="1"><path d="M56 68.6L56 82.94L56 78.31L56 79.89L56 79.33L56 79.52L56 79.45L56 79.48L56 79.47L56 79.47L56 79.47L56 150.27L56 135.97L56 137L56 136.89L56 136.9L56 136.9L56 136.9L56 144.13L56 143.4L56 143.46L56 143.46L56 143.46L56 144.33L56 144.26L56 144.26L56 144.26L56 144.38L56 144.36L56 144.36L56 144.38L56 144.38L56 144.38L56 144.38L56 144.38" fill="none" stroke-width="1.3" opacity="0.45" stroke-dasharray="4 3" style="stroke:var(--v-s2);"/><rect x="53" y="65.6" width="6" height="6" stroke-width="1.3" style="fill:var(--v-canvas);stroke:var(--v-s2);"/><title>climb, projected onto this slice</title></g><g data-climb="5" data-optimum="1" data-projected="1"><path d="M551.39 446.93L550.59 446.34L548.98 445.16L545.77 442.8L539.34 438.08L531.31 432.18L523.28 426.28L515.24 420.38L507.21 414.48L499.17 408.59L491.14 402.69L483.11 396.78L475.07 390.89L467.04 384.99L459 379.09L450.97 373.19L443.15 367.45L436.39 362.49L430.54 358.19L425.47 354.46L421.07 351.23L417.25 348.43L413.93 345.99L411.04 343.87L408.53 342.03L406.35 340.42L404.44 339.02L402.79 337.81L401.34 336.75L400.08 335.82L398.99 335.01L398.03 334.31L397.2 333.7L396.47 333.17L395.83 332.7L395.28 332.29L394.79 331.94L394.37 331.63L394 331.36L393.68 331.12L393.4 330.91L393.16 330.74L392.94 330.57L392.75 330.44L392.59 330.32L392.45 330.22L392.33 330.12L392.22 330.05L392.12 329.97L392.04 329.91L391.97 329.86L391.91 329.82L391.85 329.77L391.8 329.74L391.76 329.71L391.72 329.68L391.69 329.65L391.66 329.64L391.64 329.62L391.62 329.6L391.6 329.59L391.58 329.58L391.57 329.57L391.55 329.56L391.54 329.55L391.53 329.54L391.53 329.54L391.52 329.53L391.51 329.53L391.51 329.52L391.5 329.52L391.5 329.52L391.49 329.52L391.49 329.51L391.49 329.51L391.48 329.5L391.48 329.5L391.48 329.5L391.48 329.5L391.48 329.5L391.48 329.5L391.48 329.5L391.48 329.5L391.48 329.5L391.47 329.5L391.47 329.5L391.47 329.5L392.28 330.09L393.86 331.25L396.96 333.52L402.84 337.84L409.46 342.71L415.24 346.95L420.3 350.66L424.7 353.9L428.54 356.72L431.88 359.17L434.79 361.3L437.31 363.16L439.51 364.77L441.42 366.18L443.08 367.39L444.52 368.45L445.77 369.37L446.85 370.16L447.8 370.85L448.61 371.46L449.32 371.97L449.93 372.43L450.47 372.82L450.93 373.16L451.33 373.45L451.68 373.71L451.98 373.93L452.24 374.12L452.47 374.28L452.66 374.43L452.83 374.56L452.98 374.66L453.11 374.76L453.22 374.84L453.31 374.91L453.39 374.97L453.47 375.02L453.53 375.07L453.58 375.11L453.63 375.14L453.67 375.17L453.71 375.2L453.74 375.22L453.77 375.24L453.79 375.26L453.81 375.27L453.82 375.29L453.84 375.29L453.85 375.3L453.86 375.31L453.87 375.32L453.88 375.33L453.89 375.33L453.89 375.34L453.9 375.34L453.91 375.34L453.91 375.35L453.91 375.35L453.92 375.35L453.92 375.35L453.92 375.35L453.92 375.36L453.93 375.36L453.93 375.36L453.93 375.36L453.93 375.36L453.93 375.36L453.93 375.36L453.93 375.36L453.93 375.36L453.93 375.36" fill="none" stroke-width="1.3" opacity="0.45" stroke-dasharray="4 3" style="stroke:var(--v-s2);"/><rect x="548.39" y="443.93" width="6" height="6" stroke-width="1.3" style="fill:var(--v-canvas);stroke:var(--v-s2);"/><title>climb, projected onto this slice</title></g><g data-climb="6" data-optimum="6" data-projected="1"><path d="M56 195.54L56 209.88L56 204.51L56 206.34L56 205.69L56 205.92L56 205.84L56 205.87L56 205.86L56 205.86L56 205.86L56 205.86L56 276.65L56 259.71L56 260.8L56 260.68L56 260.7L56 260.7L56 260.7L56 267.93L56 267.2L56 267.25L56 267.25L56 267.25L56 268.13L56 268.06L56 268.06L56 268.06L56 268.17L56 268.16L56 268.16L56 268.18L56 268.17L56 268.18L56 268.18L56 268.18" fill="none" stroke-width="1.3" opacity="0.45" stroke-dasharray="4 3" style="stroke:var(--v-s2);"/><rect x="53" y="192.54" width="6" height="6" stroke-width="1.3" style="fill:var(--v-canvas);stroke:var(--v-s2);"/><title>climb, projected onto this slice</title></g><g data-climb="7" data-optimum="0" data-projected="1"><path d="M453.12 470L452.32 469.41L450.72 468.23L447.6 465.95L441.72 461.63L435.15 456.8L429.47 452.63L424.54 449.01L420.26 445.87L416.54 443.14L413.31 440.77L410.51 438.71L408.07 436.92L405.94 435.36L404.09 434L402.48 432.81L401.07 431.78L399.85 430.89L398.78 430.1L397.85 429.41L397.04 428.82L396.33 428.3L395.72 427.85L395.18 427.45L394.71 427.11L394.29 426.8L393.93 426.54L393.62 426.31L393.35 426.11L393.11 425.94L392.9 425.78L392.72 425.65L392.56 425.53L392.42 425.43L392.3 425.34L392.2 425.26L392.1 425.19L392.02 425.14L391.95 425.08L391.89 425.04L391.84 425L391.79 424.97L391.75 424.94L391.72 424.91L391.68 424.89L391.66 424.86L391.63 424.85L391.61 424.83L391.6 424.82L391.58 424.81L391.56 424.8L391.55 424.79L391.54 424.78L391.53 424.78L391.53 424.77L391.52 424.76L391.51 424.76L391.51 424.75L391.5 424.75L391.5 424.75L391.49 424.75L391.49 424.74L391.49 424.74L391.48 424.74L391.48 424.74L391.48 424.74L391.48 424.74L391.48 424.74L391.48 424.74L391.48 424.73L391.48 424.73L391.48 424.73L391.47 424.73L391.47 424.73L391.47 424.73L392.28 425.32L393.86 426.49L396.96 428.76L402.84 433.08L409.46 437.94L415.24 442.19L420.3 445.9L424.7 449.13L428.54 451.95L431.88 454.4L434.79 456.54L437.31 458.39L439.51 460.01L441.42 461.41L443.08 462.63L444.52 463.68L445.77 464.6L446.85 465.4L447.8 466.09L448.61 466.69L449.32 467.21L449.93 467.66L450.47 468.05L450.93 468.39L451.33 468.68L451.68 468.94L451.98 469.16L452.24 469.35L452.47 469.52L452.66 469.67L452.83 469.79L452.98 469.89L453.11 469.99L453.14 470L453.17 470L453.19 470L453.21 470L453.24 470L453.26 470L453.28 470L453.3 470L453.32 470L453.34 470L453.36 470L453.37 470L453.39 470L453.41 470L453.42 470L453.44 470L453.46 470L453.47 470L453.49 470L453.5 470L453.51 470L453.52 470L453.54 470L453.55 470L453.56 470L453.57 470L453.58 470L453.6 470L453.6 470L453.62 470L453.63 470L453.63 470L453.65 470L453.65 470L453.66 470L453.67 470L453.68 470L453.69 470L453.7 470L453.7 470L453.71 470L453.72 470L453.72 470L453.73 470L453.74 470L453.74 470L453.75 470L453.75 470L453.76 470L453.77 470L453.77 470L453.77 470L453.78 470L453.79 470L453.79 470L453.79 470L453.8 470L453.8 470L453.81 470L453.81 470L453.81 470L453.82 470L453.82 470L453.83 470L453.83 470L453.83 470L453.84 470L453.84 470L453.84 470L453.84 470L453.85 470L453.85 470L453.85 470L453.86 470L453.86 470L453.86 470L453.86 470L453.86 470L453.87 470L453.87 470L453.87 470L453.87 470L453.88 470L453.88 470L453.88 470L453.88 470L453.88 470L453.89 470L453.89 470L453.89 470L453.89 470L453.89 470L453.89 470L453.89 470L453.89 470L453.9 470L453.9 470L453.9 470L453.9 470L453.9 470L453.9 470L453.9 470L453.9 470L453.91 470L453.91 470L453.91 470L453.91 470L453.91 470L453.91 470L453.91 470L453.91 470L453.91 470L453.91 470L453.91 470L453.91 470L453.91 470L453.91 470L453.91 470L453.92 470L453.92 470L453.92 470L453.92 470L453.92 470L453.92 470L453.92 470L453.92 470L453.92 470L453.92 470L453.92 470L453.92 470L453.92 470L453.92 470L453.92 470L453.92 470L453.92 470L453.92 470L453.93 470L453.93 470L453.93 470L453.93 470L453.93 470L453.93 470L453.93 470L453.93 470" fill="none" stroke-width="1.3" opacity="0.45" stroke-dasharray="4 3" style="stroke:var(--v-hi);"/><rect x="450.12" y="467" width="6" height="6" stroke-width="1.3" style="fill:var(--v-canvas);stroke:var(--v-hi);"/><title>climb, projected onto this slice</title></g><g data-climb="8" data-optimum="4" data-projected="1"><path d="M328.53 339.92L329.29 340.48L330.79 341.57L333.72 343.73L339.32 347.84L345.66 352.5L351.26 356.61L356.21 360.24L360.56 363.43L364.38 366.24L367.75 368.71L370.7 370.88L373.29 372.78L375.56 374.45L377.56 375.92L379.3 377.2L380.83 378.32L382.17 379.3L383.33 380.16L384.36 380.91L385.26 381.57L386.04 382.14L386.73 382.65L387.32 383.09L387.85 383.47L388.3 383.81L388.7 384.1L389.05 384.36L389.36 384.58L389.62 384.78L389.86 384.95L390.06 385.1L390.24 385.23L390.4 385.34L390.53 385.44L390.65 385.53L390.75 385.61L390.85 385.67L390.92 385.73L390.99 385.78L391.05 385.83L391.11 385.87L391.15 385.9L391.19 385.93L391.23 385.96L391.26 385.98L391.28 386L391.31 386.01L391.33 386.03L391.35 386.04L391.36 386.05L391.38 386.06L391.39 386.07L391.4 386.08L391.41 386.09L391.41 386.09L391.42 386.1L391.43 386.1L391.43 386.11L391.44 386.11L391.44 386.11L391.44 386.11L391.45 386.12L391.45 386.12L391.45 386.12L391.46 386.12L391.46 386.12L391.46 386.12L391.46 386.12L391.46 386.12L391.46 386.12L391.46 386.13L391.46 386.13L391.46 386.13L391.46 386.13L391.46 386.13L392.27 386.72L393.86 387.89L396.95 390.16L402.84 394.48L409.46 399.34L415.24 403.59L420.3 407.3L424.7 410.54L428.54 413.35L431.88 415.81L434.79 417.94L437.32 419.8L439.52 421.41L441.43 422.82L443.08 424.03L444.52 425.09L445.78 426.01L446.86 426.8L447.8 427.5L448.62 428.1L449.33 428.62L449.94 429.07L450.47 429.46L450.94 429.8L451.34 430.09L451.68 430.35L451.98 430.57L452.25 430.76L452.47 430.93L452.67 431.07L452.84 431.2L452.99 431.3L453.11 431.4L453.23 431.48L453.32 431.55L453.4 431.61L453.48 431.67L453.54 431.71L453.59 431.75L453.64 431.78L453.68 431.82L453.72 431.84L453.74 431.86L453.77 431.88L453.79 431.9L453.81 431.91L453.83 431.93L453.85 431.94L453.86 431.95L453.87 431.96L453.88 431.96L453.89 431.97L453.9 431.97L453.9 431.98L453.91 431.98L453.91 431.98L453.92 431.99L453.92 431.99L453.92 432L453.93 432L453.93 432L453.93 432L453.93 432L453.93 432L453.93 432L453.93 432L453.94 432.01L453.94 432.01L453.94 432.01L453.94 432.01L453.94 432.01" fill="none" stroke-width="1.3" opacity="0.45" stroke-dasharray="4 3" style="stroke:var(--v-s2);"/><rect x="325.53" y="336.92" width="6" height="6" stroke-width="1.3" style="fill:var(--v-canvas);stroke:var(--v-s2);"/><title>climb, projected onto this slice</title></g><g data-climb="9" data-optimum="3" data-projected="1"><path d="M468.87 470L468.07 469.41L466.46 468.23L463.25 465.87L456.82 461.15L448.79 455.25L441.27 449.73L434.76 444.95L429.13 440.81L424.24 437.22L420 434.11L416.33 431.41L413.12 429.06L410.34 427.02L407.92 425.24L405.82 423.69L403.98 422.35L402.39 421.17L400.99 420.15L399.78 419.26L398.72 418.49L397.8 417.81L396.99 417.22L396.29 416.7L395.68 416.25L395.14 415.86L394.68 415.52L394.27 415.21L393.91 414.96L393.6 414.73L393.33 414.53L393.1 414.36L392.89 414.21L392.71 414.07L392.55 413.95L392.42 413.85L392.3 413.76L392.19 413.69L392.1 413.63L392.02 413.56L391.95 413.51L391.89 413.47L391.84 413.43L391.79 413.4L391.75 413.36L391.71 413.34L391.68 413.32L391.65 413.3L391.63 413.28L391.61 413.26L391.59 413.25L391.58 413.24L391.56 413.23L391.55 413.22L391.54 413.21L391.53 413.21L391.53 413.2L391.52 413.2L391.51 413.19L391.51 413.19L391.5 413.19L391.5 413.18L391.49 413.18L391.49 413.17L391.49 413.17L391.48 413.17L391.48 413.17L391.48 413.17L391.48 413.17L391.48 413.17L391.48 413.17L391.48 413.16L391.48 413.16L391.48 413.16L391.47 413.16L391.47 413.16L391.47 413.16L392.28 413.75L393.86 414.92L396.96 417.19L402.84 421.51L409.46 426.37L415.24 430.62L420.3 434.33L424.7 437.56L428.54 440.38L431.88 442.83L434.79 444.97L437.31 446.82L439.51 448.44L441.42 449.84L443.08 451.06L444.52 452.12L445.77 453.04L446.85 453.83L447.8 454.52L448.61 455.12L449.32 455.64L449.93 456.09L450.47 456.49L450.93 456.82L451.33 457.12L451.68 457.37L451.98 457.6L452.24 457.79L452.47 457.95L452.66 458.1L452.83 458.22L452.98 458.33L453.11 458.42L453.22 458.5L453.31 458.57L453.39 458.63L453.47 458.69L453.53 458.73L453.58 458.77L453.63 458.81L453.67 458.84L453.71 458.86L453.74 458.88L453.77 458.91L453.79 458.92L453.81 458.93L453.82 458.95L453.84 458.96L453.85 458.97L453.86 458.98L453.87 458.98L453.88 458.99L453.89 458.99L453.89 459L453.9 459.01L453.91 459.01L453.91 459.01L453.91 459.01L453.92 459.02L453.92 459.02L453.92 459.02L453.92 459.02L453.93 459.02L453.93 459.02L453.93 459.02L453.93 459.02L453.93 459.03L453.93 459.03L453.93 459.03L453.93 459.03L453.93 459.03" fill="none" stroke-width="1.3" opacity="0.45" stroke-dasharray="4 3" style="stroke:var(--v-s2);"/><rect x="465.87" y="467" width="6" height="6" stroke-width="1.3" style="fill:var(--v-canvas);stroke:var(--v-s2);"/><title>climb, projected onto this slice</title></g><g data-climb="10" data-optimum="5" data-projected="1"><path d="M207.21 289.4L213.63 258.62L217.32 261.33L224.6 266.68L238.74 277.06L255.3 289.22L270.42 300.32L284.14 310.4L296.5 319.48L307.59 327.62L317.5 334.9L326.32 341.38L334.16 347.13L341.1 352.23L347.24 356.73L352.66 360.71L357.43 364.22L361.64 367.31L365.33 370.02L368.58 372.4L371.43 374.5L373.93 376.33L376.13 377.95L378.05 379.36L379.73 380.59L381.21 381.68L382.5 382.62L383.63 383.45L384.61 384.18L385.48 384.81L386.23 385.37L386.89 385.85L387.47 386.28L387.97 386.65L388.42 386.97L388.8 387.26L389.14 387.5L389.43 387.72L389.69 387.91L389.92 388.08L390.11 388.21L390.28 388.34L390.43 388.45L390.56 388.55L390.68 388.63L390.78 388.71L390.87 388.77L390.94 388.83L391.01 388.88L391.07 388.92L391.12 388.96L391.16 388.99L391.2 389.02L391.24 389.04L391.27 389.06L391.29 389.08L391.31 389.1L391.33 389.11L391.35 389.12L391.36 389.13L391.38 389.15L391.39 389.16L391.4 389.16L391.41 389.17L391.42 389.17L391.42 389.18L391.43 389.18L391.44 389.18L391.44 389.19L391.44 389.2L391.45 389.2L391.45 389.2L391.45 389.2L391.45 389.2L391.46 389.2L391.46 389.21L391.46 389.21L391.46 389.21L391.46 389.21L391.46 389.21L391.46 389.21L391.46 389.21L391.46 389.21L391.46 389.21L392.27 389.8L393.86 390.96L396.95 393.24L402.83 397.56L409.46 402.42L415.24 406.67L420.3 410.38L424.7 413.61L428.54 416.44L431.88 418.89L434.79 421.02L437.32 422.88L439.52 424.5L441.43 425.9L443.08 427.12L444.53 428.18L445.78 429.09L446.86 429.89L447.8 430.58L448.62 431.18L449.33 431.7L449.94 432.15L450.47 432.54L450.94 432.88L451.34 433.18L451.68 433.43L451.98 433.65L452.25 433.85L452.47 434.01L452.67 434.15L452.84 434.28L452.99 434.39L453.11 434.48L453.23 434.56L453.32 434.63L453.4 434.69L453.48 434.74L453.54 434.79L453.59 434.83L453.64 434.87L453.68 434.89L453.72 434.92L453.74 434.94L453.77 434.96L453.79 434.98L453.81 434.99L453.83 435.01L453.85 435.02L453.86 435.03L453.87 435.04L453.88 435.04L453.89 435.05L453.9 435.06L453.9 435.06L453.91 435.06L453.91 435.07L453.92 435.07L453.92 435.07L453.92 435.07L453.93 435.08L453.93 435.08L453.93 435.08L453.93 435.08L453.93 435.08L453.93 435.08L453.94 435.08L453.94 435.08L453.94 435.08L453.94 435.08L453.94 435.09L453.94 435.09" fill="none" stroke-width="1.3" opacity="0.45" stroke-dasharray="4 3" style="stroke:var(--v-s2);"/><rect x="204.21" y="286.4" width="6" height="6" stroke-width="1.3" style="fill:var(--v-canvas);stroke:var(--v-s2);"/><title>climb, projected onto this slice</title></g><g data-climb="11" data-optimum="2" data-projected="1"><path d="M478.59 425.2L477.79 424.61L476.18 423.43L472.97 421.07L466.54 416.36L458.5 410.45L450.47 404.56L442.72 398.87L436.02 393.95L430.22 389.69L425.19 385.99L420.83 382.78L417.04 380L413.74 377.59L410.88 375.49L408.39 373.66L406.22 372.06L404.34 370.68L402.69 369.47L401.26 368.42L400.01 367.5L398.92 366.71L397.98 366.01L397.15 365.4L396.43 364.87L395.8 364.41L395.25 364L394.77 363.65L394.35 363.34L393.98 363.08L393.67 362.84L393.39 362.64L393.14 362.46L392.93 362.3L392.75 362.17L392.58 362.05L392.44 361.95L392.32 361.85L392.21 361.77L392.12 361.71L392.04 361.64L391.96 361.59L391.9 361.54L391.85 361.5L391.8 361.47L391.76 361.44L391.72 361.42L391.69 361.39L391.66 361.37L391.64 361.35L391.62 361.34L391.6 361.32L391.58 361.31L391.57 361.3L391.55 361.29L391.54 361.28L391.53 361.28L391.53 361.27L391.52 361.27L391.51 361.26L391.51 361.25L391.5 361.25L391.5 361.25L391.49 361.25L391.49 361.24L391.49 361.24L391.48 361.24L391.48 361.24L391.48 361.24L391.48 361.24L391.48 361.24L391.48 361.24L391.48 361.23L391.48 361.23L391.48 361.23L391.47 361.23L391.47 361.23L391.47 361.23L392.28 361.82L393.86 362.99L396.96 365.26L402.84 369.58L409.46 374.44L415.24 378.69L420.3 382.39L424.7 385.63L428.54 388.45L431.88 390.9L434.79 393.04L437.31 394.89L439.51 396.51L441.42 397.91L443.08 399.13L444.52 400.18L445.77 401.1L446.85 401.9L447.8 402.59L448.61 403.19L449.32 403.71L449.93 404.16L450.47 404.56L450.93 404.89L451.33 405.19L451.68 405.44L451.98 405.66L452.24 405.85L452.47 406.02L452.66 406.17L452.83 406.29L452.98 406.39L453.11 406.49L453.22 406.57L453.31 406.64L453.39 406.7L453.47 406.76L453.53 406.8L453.58 406.84L453.63 406.87L453.67 406.91L453.71 406.93L453.74 406.95L453.77 406.97L453.79 406.99L453.81 407L453.82 407.02L453.84 407.03L453.85 407.04L453.86 407.05L453.87 407.05L453.88 407.06L453.89 407.06L453.89 407.07L453.9 407.07L453.91 407.07L453.91 407.08L453.91 407.08L453.92 407.09L453.92 407.09L453.92 407.09L453.92 407.09L453.93 407.09L453.93 407.09L453.93 407.09L453.93 407.1L453.93 407.1L453.93 407.1L453.93 407.1L453.93 407.1L453.93 407.1" fill="none" stroke-width="1.3" opacity="0.45" stroke-dasharray="4 3" style="stroke:var(--v-s2);"/><rect x="475.59" y="422.2" width="6" height="6" stroke-width="1.3" style="fill:var(--v-canvas);stroke:var(--v-s2);"/><title>climb, projected onto this slice</title></g><g data-whole="0,0" data-local="0"><circle cx="56" cy="470" r="1.9" style="fill:var(--v-ink);"/><circle cx="56" cy="470" r="7" fill="transparent"/><title>0 chairs, 0 tables (stools=8): 192.00</title></g><g data-whole="0,1" data-local="0"><circle cx="56" cy="414.25" r="1.9" style="fill:var(--v-ink);"/><circle cx="56" cy="414.25" r="7" fill="transparent"/><title>0 chairs, 1 tables (stools=8): 312.00</title></g><g data-whole="0,2" data-local="0"><circle cx="56" cy="358.5" r="1.9" style="fill:var(--v-ink);"/><circle cx="56" cy="358.5" r="7" fill="transparent"/><title>0 chairs, 2 tables (stools=8): 432.00</title></g><g data-whole="0,3" data-local="0"><circle cx="56" cy="302.75" r="1.9" style="fill:var(--v-ink);"/><circle cx="56" cy="302.75" r="7" fill="transparent"/><title>0 chairs, 3 tables (stools=8): 552.00</title></g><g data-whole="0,4" data-local="1" data-link="plan:chairs=0,tables=4,stools=8"><circle cx="56" cy="247" r="1.9" style="fill:var(--v-ink);"/><circle cx="56" cy="247" r="5.5" fill="none" stroke-width="1.7" style="stroke:var(--v-ink);"/><circle cx="56" cy="247" r="7" fill="transparent"/><title>0 chairs, 4 tables (stools=8): 672.00 (local optimum in this slice)</title></g><g data-whole="1,0" data-local="0"><circle cx="85.2" cy="470" r="1.9" style="fill:var(--v-ink);"/><circle cx="85.2" cy="470" r="7" fill="transparent"/><title>1 chairs, 0 tables (stools=8): 237.00</title></g><g data-whole="1,1" data-local="0"><circle cx="85.2" cy="414.25" r="1.9" style="fill:var(--v-ink);"/><circle cx="85.2" cy="414.25" r="7" fill="transparent"/><title>1 chairs, 1 tables (stools=8): 357.00</title></g><g data-whole="1,2" data-local="0"><circle cx="85.2" cy="358.5" r="1.9" style="fill:var(--v-ink);"/><circle cx="85.2" cy="358.5" r="7" fill="transparent"/><title>1 chairs, 2 tables (stools=8): 477.00</title></g><g data-whole="1,3" data-local="0"><circle cx="85.2" cy="302.75" r="1.9" style="fill:var(--v-ink);"/><circle cx="85.2" cy="302.75" r="7" fill="transparent"/><title>1 chairs, 3 tables (stools=8): 597.00</title></g><g data-whole="2,0" data-local="0"><circle cx="114.4" cy="470" r="1.9" style="fill:var(--v-ink);"/><circle cx="114.4" cy="470" r="7" fill="transparent"/><title>2 chairs, 0 tables (stools=8): 282.00</title></g><g data-whole="2,1" data-local="0"><circle cx="114.4" cy="414.25" r="1.9" style="fill:var(--v-ink);"/><circle cx="114.4" cy="414.25" r="7" fill="transparent"/><title>2 chairs, 1 tables (stools=8): 402.00</title></g><g data-whole="2,2" data-local="0"><circle cx="114.4" cy="358.5" r="1.9" style="fill:var(--v-ink);"/><circle cx="114.4" cy="358.5" r="7" fill="transparent"/><title>2 chairs, 2 tables (stools=8): 522.00</title></g><g data-whole="2,3" data-local="0"><circle cx="114.4" cy="302.75" r="1.9" style="fill:var(--v-ink);"/><circle cx="114.4" cy="302.75" r="7" fill="transparent"/><title>2 chairs, 3 tables (stools=8): 642.00</title></g><g data-whole="3,0" data-local="0"><circle cx="143.6" cy="470" r="1.9" style="fill:var(--v-ink);"/><circle cx="143.6" cy="470" r="7" fill="transparent"/><title>3 chairs, 0 tables (stools=8): 327.00</title></g><g data-whole="3,1" data-local="0"><circle cx="143.6" cy="414.25" r="1.9" style="fill:var(--v-ink);"/><circle cx="143.6" cy="414.25" r="7" fill="transparent"/><title>3 chairs, 1 tables (stools=8): 447.00</title></g><g data-whole="3,2" data-local="0"><circle cx="143.6" cy="358.5" r="1.9" style="fill:var(--v-ink);"/><circle cx="143.6" cy="358.5" r="7" fill="transparent"/><title>3 chairs, 2 tables (stools=8): 567.00</title></g><g data-whole="3,3" data-local="1" data-link="plan:chairs=3,tables=3,stools=8"><circle cx="143.6" cy="302.75" r="1.9" style="fill:var(--v-ink);"/><circle cx="143.6" cy="302.75" r="5.5" fill="none" stroke-width="1.7" style="stroke:var(--v-ink);"/><circle cx="143.6" cy="302.75" r="7" fill="transparent"/><title>3 chairs, 3 tables (stools=8): 687.00 (local optimum in this slice)</title></g><g data-whole="4,0" data-local="0"><circle cx="172.8" cy="470" r="1.9" style="fill:var(--v-ink);"/><circle cx="172.8" cy="470" r="7" fill="transparent"/><title>4 chairs, 0 tables (stools=8): 372.00</title></g><g data-whole="4,1" data-local="0"><circle cx="172.8" cy="414.25" r="1.9" style="fill:var(--v-ink);"/><circle cx="172.8" cy="414.25" r="7" fill="transparent"/><title>4 chairs, 1 tables (stools=8): 492.00</title></g><g data-whole="4,2" data-local="0"><circle cx="172.8" cy="358.5" r="1.9" style="fill:var(--v-ink);"/><circle cx="172.8" cy="358.5" r="7" fill="transparent"/><title>4 chairs, 2 tables (stools=8): 612.00</title></g><g data-whole="5,0" data-local="0"><circle cx="202" cy="470" r="1.9" style="fill:var(--v-ink);"/><circle cx="202" cy="470" r="7" fill="transparent"/><title>5 chairs, 0 tables (stools=8): 417.00</title></g><g data-whole="5,1" data-local="0"><circle cx="202" cy="414.25" r="1.9" style="fill:var(--v-ink);"/><circle cx="202" cy="414.25" r="7" fill="transparent"/><title>5 chairs, 1 tables (stools=8): 537.00</title></g><g data-whole="5,2" data-local="0"><circle cx="202" cy="358.5" r="1.9" style="fill:var(--v-ink);"/><circle cx="202" cy="358.5" r="7" fill="transparent"/><title>5 chairs, 2 tables (stools=8): 657.00</title></g><g data-whole="6,0" data-local="0"><circle cx="231.2" cy="470" r="1.9" style="fill:var(--v-ink);"/><circle cx="231.2" cy="470" r="7" fill="transparent"/><title>6 chairs, 0 tables (stools=8): 462.00</title></g><g data-whole="6,1" data-local="0"><circle cx="231.2" cy="414.25" r="1.9" style="fill:var(--v-ink);"/><circle cx="231.2" cy="414.25" r="7" fill="transparent"/><title>6 chairs, 1 tables (stools=8): 582.00</title></g><g data-whole="6,2" data-local="0"><circle cx="231.2" cy="358.5" r="1.9" style="fill:var(--v-ink);"/><circle cx="231.2" cy="358.5" r="7" fill="transparent"/><title>6 chairs, 2 tables (stools=8): 702.00</title></g><g data-whole="7,0" data-local="0"><circle cx="260.4" cy="470" r="1.9" style="fill:var(--v-ink);"/><circle cx="260.4" cy="470" r="7" fill="transparent"/><title>7 chairs, 0 tables (stools=8): 507.00</title></g><g data-whole="7,1" data-local="0"><circle cx="260.4" cy="414.25" r="1.9" style="fill:var(--v-ink);"/><circle cx="260.4" cy="414.25" r="7" fill="transparent"/><title>7 chairs, 1 tables (stools=8): 627.00</title></g><g data-whole="7,2" data-local="1" data-link="plan:chairs=7,tables=2,stools=8"><circle cx="260.4" cy="358.5" r="1.9" style="fill:var(--v-ink);"/><circle cx="260.4" cy="358.5" r="5.5" fill="none" stroke-width="1.7" style="stroke:var(--v-ink);"/><circle cx="260.4" cy="358.5" r="7" fill="transparent"/><title>7 chairs, 2 tables (stools=8): 747.00 (local optimum in this slice)</title></g><g data-whole="8,0" data-local="0"><circle cx="289.6" cy="470" r="1.9" style="fill:var(--v-ink);"/><circle cx="289.6" cy="470" r="7" fill="transparent"/><title>8 chairs, 0 tables (stools=8): 552.00</title></g><g data-whole="8,1" data-local="0"><circle cx="289.6" cy="414.25" r="1.9" style="fill:var(--v-ink);"/><circle cx="289.6" cy="414.25" r="7" fill="transparent"/><title>8 chairs, 1 tables (stools=8): 672.00</title></g><g data-whole="9,0" data-local="0"><circle cx="318.8" cy="470" r="1.9" style="fill:var(--v-ink);"/><circle cx="318.8" cy="470" r="7" fill="transparent"/><title>9 chairs, 0 tables (stools=8): 597.00</title></g><g data-whole="9,1" data-local="0"><circle cx="318.8" cy="414.25" r="1.9" style="fill:var(--v-ink);"/><circle cx="318.8" cy="414.25" r="7" fill="transparent"/><title>9 chairs, 1 tables (stools=8): 717.00</title></g><g data-whole="10,0" data-local="0"><circle cx="348" cy="470" r="1.9" style="fill:var(--v-ink);"/><circle cx="348" cy="470" r="7" fill="transparent"/><title>10 chairs, 0 tables (stools=8): 642.00</title></g><g data-whole="10,1" data-local="1" data-link="plan:chairs=10,tables=1,stools=8"><circle cx="348" cy="414.25" r="1.9" style="fill:var(--v-ink);"/><circle cx="348" cy="414.25" r="5.5" fill="none" stroke-width="1.7" style="stroke:var(--v-ink);"/><circle cx="348" cy="414.25" r="7" fill="transparent"/><title>10 chairs, 1 tables (stools=8): 762.00 (local optimum in this slice)</title></g><g data-whole="11,0" data-local="0"><circle cx="377.2" cy="470" r="1.9" style="fill:var(--v-ink);"/><circle cx="377.2" cy="470" r="7" fill="transparent"/><title>11 chairs, 0 tables (stools=8): 687.00</title></g><g data-whole="12,0" data-local="0"><circle cx="406.4" cy="470" r="1.9" style="fill:var(--v-ink);"/><circle cx="406.4" cy="470" r="7" fill="transparent"/><title>12 chairs, 0 tables (stools=8): 732.00</title></g><g data-whole="13,0" data-local="0"><circle cx="435.6" cy="470" r="1.9" style="fill:var(--v-ink);"/><circle cx="435.6" cy="470" r="7" fill="transparent"/><title>13 chairs, 0 tables (stools=8): 777.00</title></g><g data-whole="14,0" data-local="1" data-link="plan:chairs=14,tables=0,stools=8"><circle cx="464.8" cy="470" r="1.9" style="fill:var(--v-ink);"/><circle cx="464.8" cy="470" r="5.5" stroke-width="1.7" style="fill:var(--v-ink);stroke:var(--v-ink);"/><circle cx="464.8" cy="470" r="7" fill="transparent"/><title>14 chairs, 0 tables (stools=8): 822.00 (proven whole-unit optimum)</title></g><g data-link="optimum:0" data-in-slice="0"><circle cx="453.93" cy="470" r="6.5" stroke-width="2.2" stroke-dasharray="3 2" style="fill:var(--v-canvas);stroke:var(--v-hi);"/><title>climb optimum (local): 13.63 chairs, 8.74 stools, 0 tables, 823.12, 3 starts (outside this slice; projected)</title></g><g data-link="optimum:1" data-in-slice="0"><circle cx="453.93" cy="375.36" r="6.5" stroke-width="2.2" stroke-dasharray="3 2" style="fill:var(--v-canvas);stroke:var(--v-s2);"/><title>climb optimum (local): 13.63 chairs, 0.26 stools, 1.7 tables, 823.12, 3 starts (outside this slice; projected)</title></g><g data-link="optimum:2" data-in-slice="0"><circle cx="453.93" cy="407.1" r="6.5" stroke-width="2.2" stroke-dasharray="3 2" style="fill:var(--v-canvas);stroke:var(--v-s2);"/><title>climb optimum (local): 13.63 chairs, 3.1 stools, 1.13 tables, 823.12, 1 starts (outside this slice; projected)</title></g><g data-link="optimum:3" data-in-slice="0"><circle cx="453.93" cy="459.03" r="6.5" stroke-width="2.2" stroke-dasharray="3 2" style="fill:var(--v-canvas);stroke:var(--v-s2);"/><title>climb optimum (local): 13.63 chairs, 7.76 stools, 0.2 tables, 823.12, 1 starts (outside this slice; projected)</title></g><g data-link="optimum:4" data-in-slice="0"><circle cx="453.94" cy="432.01" r="6.5" stroke-width="2.2" stroke-dasharray="3 2" style="fill:var(--v-canvas);stroke:var(--v-s2);"/><title>climb optimum (local): 13.63 chairs, 5.34 stools, 0.68 tables, 823.12, 1 starts (outside this slice; projected)</title></g><g data-link="optimum:5" data-in-slice="0"><circle cx="453.94" cy="435.09" r="6.5" stroke-width="2.2" stroke-dasharray="3 2" style="fill:var(--v-canvas);stroke:var(--v-s2);"/><title>climb optimum (local): 13.63 chairs, 5.61 stools, 0.63 tables, 823.12, 1 starts (outside this slice; projected)</title></g><g data-link="optimum:6" data-in-slice="0"><circle cx="56" cy="268.18" r="6.5" stroke-width="2.2" stroke-dasharray="3 2" style="fill:var(--v-canvas);stroke:var(--v-s2);"/><title>climb optimum (local): 0 chairs, 11.12 stools, 3.62 tables, 701.39, 1 starts (outside this slice; projected)</title></g><g data-link="optimum:7" data-in-slice="0"><circle cx="56" cy="144.38" r="6.5" stroke-width="2.2" stroke-dasharray="3 2" style="fill:var(--v-canvas);stroke:var(--v-s2);"/><title>climb optimum (local): 0 chairs, 0.02 stools, 5.84 tables, 701.39, 1 starts (outside this slice; projected)</title></g><g data-plan="fractional optimum" data-link="plan:fractional optimum" data-at="13.58,0" data-certificate="proven" data-feasible="0" data-in-slice="0"><circle cx="452.55" cy="470" r="8" fill="none" stroke-width="2.4" stroke-dasharray="3 2" style="stroke:var(--v-s2);"/><title>fractional optimum (proven, breaks a limit): 13.58 chairs, 8.84 stools, 0 tables, 823.26 (outside this slice; projected)</title></g><g data-plan="whole-unit optimum" data-link="plan:whole-unit optimum" data-at="14,0" data-certificate="proven" data-feasible="1" data-in-slice="1"><circle cx="464.8" cy="470" r="6.5" stroke-width="1.6" style="fill:var(--v-ink);stroke:var(--v-ink);"/><title>whole-unit optimum (proven): 14 chairs, 8 stools, 0 tables, 822.00</title></g><g data-plan="without effects" data-link="plan:without effects" data-at="8,3" data-certificate="naive" data-feasible="0" data-in-slice="0"><circle cx="289.6" cy="302.75" r="8" fill="none" stroke-width="2.4" stroke-dasharray="3 2" style="stroke:var(--v-s2);"/><title>without effects (naive, breaks a limit): 8 chairs, 3 stools, 3 tables, 792.00 (outside this slice; projected)</title></g><path d="M56 470H640M56 24V470" style="stroke:var(--v-line);"/><text x="56" y="486" class="lbl" text-anchor="middle">0</text><text x="172.8" y="486" class="lbl" text-anchor="middle">4</text><text x="289.6" y="486" class="lbl" text-anchor="middle">8</text><text x="406.4" y="486" class="lbl" text-anchor="middle">12</text><text x="523.2" y="486" class="lbl" text-anchor="middle">16</text><text x="640" y="486" class="lbl" text-anchor="middle">20</text><text x="50" y="474" class="lbl" text-anchor="end">0</text><text x="50" y="362.5" class="lbl" text-anchor="end">2</text><text x="50" y="251" class="lbl" text-anchor="end">4</text><text x="50" y="139.5" class="lbl" text-anchor="end">6</text><text x="50" y="28" class="lbl" text-anchor="end">8</text><text x="640" y="504" class="lbl" text-anchor="end">chairs</text><text x="56" y="16" class="lbl">tables</text><text x="640" y="16" class="ink" text-anchor="end" data-slice="stools=8">slice: stools held at 8</text><text x="668" y="38" class="ink">value</text><rect x="668" y="228" width="16" height="9" fill-opacity="0.05" style="fill:var(--v-hi);"/><rect x="668" y="219" width="16" height="9" fill-opacity="0.05" style="fill:var(--v-hi);"/><rect x="668" y="210" width="16" height="9" fill-opacity="0.05" style="fill:var(--v-hi);"/><rect x="668" y="201" width="16" height="9" fill-opacity="0.05" style="fill:var(--v-hi);"/><rect x="668" y="192" width="16" height="9" fill-opacity="0.06" style="fill:var(--v-hi);"/><rect x="668" y="183" width="16" height="9" fill-opacity="0.06" style="fill:var(--v-hi);"/><rect x="668" y="174" width="16" height="9" fill-opacity="0.07" style="fill:var(--v-hi);"/><rect x="668" y="165" width="16" height="9" fill-opacity="0.09" style="fill:var(--v-hi);"/><rect x="668" y="156" width="16" height="9" fill-opacity="0.1" style="fill:var(--v-hi);"/><rect x="668" y="147" width="16" height="9" fill-opacity="0.13" style="fill:var(--v-hi);"/><rect x="668" y="138" width="16" height="9" fill-opacity="0.16" style="fill:var(--v-hi);"/><rect x="668" y="129" width="16" height="9" fill-opacity="0.19" style="fill:var(--v-hi);"/><rect x="668" y="120" width="16" height="9" fill-opacity="0.23" style="fill:var(--v-hi);"/><rect x="668" y="111" width="16" height="9" fill-opacity="0.28" style="fill:var(--v-hi);"/><rect x="668" y="102" width="16" height="9" fill-opacity="0.34" style="fill:var(--v-hi);"/><rect x="668" y="93" width="16" height="9" fill-opacity="0.41" style="fill:var(--v-hi);"/><rect x="668" y="84" width="16" height="9" fill-opacity="0.49" style="fill:var(--v-hi);"/><rect x="668" y="75" width="16" height="9" fill-opacity="0.57" style="fill:var(--v-hi);"/><rect x="668" y="66" width="16" height="9" fill-opacity="0.67" style="fill:var(--v-hi);"/><rect x="668" y="57" width="16" height="9" fill-opacity="0.78" style="fill:var(--v-hi);"/><rect x="668" y="48" width="16" height="9" fill-opacity="0.9" style="fill:var(--v-hi);"/><text x="690" y="56" class="lbl">822</text><text x="690" y="236" class="lbl">0</text><rect x="668" y="256" width="16" height="14" fill="url(#hatch2)" style="stroke:var(--v-line);"/><text x="690" y="267" class="lbl">breaks</text><text x="690" y="281" class="lbl">a limit</text><circle cx="676" cy="306" r="6" fill="none" stroke-dasharray="3 2" style="stroke:var(--v-ink);"/><text x="690" y="310" class="lbl">projected</text></svg>
